<svg width="189" height="128" viewBox="0 0 189 128" fill="none" xmlns="http://www.w3.org/2000/svg">
<path d="M17.756 34.0764L17.3939 33.7315L17.3766 33.7497L17.3611 33.7696L17.756 34.0764ZM135 17.0127L130.345 13.5973L129.715 19.3363L135 17.0127ZM28.0653 126.802C27.1629 126.093 26.1952 125.293 25.1824 124.406L24.5234 125.158C25.5495 126.057 26.5309 126.868 27.4472 127.588L28.0653 126.802ZM19.7896 119.203C18.1625 117.478 16.5123 115.575 14.9031 113.503L14.1134 114.117C15.7436 116.216 17.4149 118.143 19.0622 119.889L19.7896 119.203ZM10.6071 107.35C9.31799 105.28 8.10519 103.088 7.0109 100.781L6.1074 101.21C7.21917 103.554 8.45055 105.779 9.75828 107.879L10.6071 107.35ZM4.22527 93.827C3.46273 91.5038 2.83503 89.0877 2.37504 86.5832L1.39149 86.7639C1.86005 89.315 2.49923 91.7749 3.27514 94.1389L4.22527 93.827ZM1.54405 79.1552C1.44518 76.7326 1.5103 74.2402 1.76424 71.6813L0.769132 71.5826C0.510534 74.1884 0.444134 76.7274 0.544879 79.1959L1.54405 79.1552ZM2.99857 64.304C3.54888 61.963 4.26109 59.5729 5.15196 57.1361L4.21276 56.7927C3.30847 59.2662 2.58472 61.6945 2.0251 64.0752L2.99857 64.304ZM8.10386 50.2398C9.16354 48.0789 10.3659 45.8851 11.7217 43.6598L10.8677 43.1395C9.49669 45.3899 8.27956 47.6103 7.20602 49.7994L8.10386 50.2398ZM15.8781 37.4154C16.6038 36.4104 17.361 35.3996 18.1508 34.3831L17.3611 33.7696C16.5643 34.7952 15.8 35.8153 15.0674 36.83L15.8781 37.4154ZM18.118 34.4212C18.9714 33.5253 19.8774 32.661 20.8355 31.8281L20.1795 31.0734C19.1984 31.9263 18.2696 32.8122 17.3939 33.7315L18.118 34.4212ZM26.9129 27.3854C28.9763 26.1121 31.2032 24.9372 33.5909 23.8596L33.1795 22.9482C30.756 24.0419 28.4908 25.2366 26.3877 26.5343L26.9129 27.3854ZM40.6409 21.1136C42.9517 20.34 45.3794 19.6379 47.9221 19.0065L47.6811 18.036C45.1147 18.6733 42.6614 19.3826 40.3235 20.1653L40.6409 21.1136ZM55.3359 17.4234C57.7508 16.9849 60.2524 16.6002 62.8392 16.2685L62.712 15.2766C60.1091 15.6103 57.5904 15.9977 55.1572 16.4395L55.3359 17.4234ZM70.3949 15.4705C72.8571 15.2626 75.3866 15.0969 77.9824 14.9729L77.9347 13.9741C75.3274 14.0986 72.7857 14.265 70.3108 14.474L70.3949 15.4705ZM85.5917 14.7318C88.0695 14.691 90.6015 14.6845 93.1868 14.7119L93.1974 13.7119C90.6035 13.6845 88.0625 13.691 85.5753 13.7319L85.5917 14.7318ZM100.792 14.8843C103.283 14.9697 105.819 15.084 108.401 15.2267L108.456 14.2282C105.868 14.0851 103.324 13.9706 100.826 13.8849L100.792 14.8843ZM115.986 15.7184C118.479 15.9029 121.01 16.1121 123.579 16.3457L123.67 15.3498C121.095 15.1157 118.559 14.9061 116.06 14.7211L115.986 15.7184Z" fill="#022B23"/>
<g clip-path="url(#clip0_895_51)">
<path d="M188.693 37.1039L183.676 32.0871C183.087 31.4978 182.359 31.1292 181.597 30.9812V20.8618C181.761 20.8756 181.924 20.8823 182.087 20.8823C183.636 20.8823 185.131 20.2744 186.255 19.1501C187.697 17.7081 188.289 15.6577 187.84 13.6646C187.774 13.3704 187.544 13.1409 187.25 13.0744C185.257 12.6251 183.206 13.2175 181.764 14.6594C181.707 14.7165 181.652 14.7751 181.597 14.834V10.7452C182.797 9.82758 183.501 8.41614 183.501 6.88782C183.501 5.21118 182.653 3.67432 181.233 2.7771C180.978 2.61597 180.653 2.61597 180.398 2.7771C178.978 3.67432 178.131 5.21118 178.131 6.88782C178.131 8.41614 178.835 9.82758 180.035 10.7452V11.7706C178.75 10.4984 176.93 9.97681 175.162 10.3757C174.868 10.4422 174.638 10.672 174.572 10.9659C174.171 12.7432 174.699 14.5718 175.985 15.8579C176.988 16.8607 178.321 17.4027 179.702 17.4027C179.813 17.4027 179.923 17.3981 180.035 17.3914V20.5292C179.933 20.4117 179.827 20.297 179.716 20.1859C178.164 18.6344 175.964 17.988 173.818 18.4491C173.644 17.2373 172.6 16.3028 171.341 16.3028H166.321L163.982 13.0878C163.651 12.6328 163.239 12.2519 162.775 11.9562C164.138 11.3867 165.099 10.04 165.099 8.47291V6.60523H166.303C166.735 6.60523 167.084 6.2555 167.084 5.82398C167.084 5.39246 166.735 5.04273 166.303 5.04273H165.313V3.7912C165.313 2.56226 164.314 1.5625 163.085 1.5625H159.391C158.162 1.5625 157.163 2.56226 157.163 3.7912V5.04273H156.173C155.741 5.04273 155.392 5.39246 155.392 5.82398C155.392 6.2555 155.741 6.60523 156.173 6.60523H157.552V8.47291C157.552 9.68934 158.131 10.7727 159.028 11.4633C157.23 12.0368 155.923 13.7228 155.923 15.7089V24.2154C155.923 26.0437 156.922 27.6422 158.402 28.4964V33.5157H151.383C150.026 33.5157 148.922 34.6198 148.922 35.9766C148.922 37.3334 150.026 38.4375 151.383 38.4375H152.389C152.82 38.4375 153.17 38.0878 153.17 37.6563C153.17 37.2248 152.82 36.875 152.389 36.875H151.383C150.888 36.875 150.484 36.4719 150.484 35.9766C150.484 35.4813 150.888 35.0782 151.383 35.0782H159.183C159.615 35.0782 159.965 34.7284 159.965 34.2969V29.0726C160.256 29.1266 160.557 29.1562 160.864 29.1562H162.412V34.2093C162.412 35.6794 161.216 36.875 159.746 36.875H158.639C158.207 36.875 157.857 37.2248 157.857 37.6563C157.857 38.0878 158.207 38.4375 158.639 38.4375H159.746C162.077 38.4375 163.974 36.5409 163.974 34.2093V29.1562H166.831V35.9766C166.831 37.3334 167.936 38.4375 169.292 38.4375C170.649 38.4375 171.753 37.3334 171.753 35.9766V27.5C171.753 25.1685 169.857 23.2718 167.525 23.2718H163.762V21.2705C163.838 21.2949 163.919 21.308 164.001 21.308H171.341C171.979 21.308 172.562 21.0678 173.004 20.6735C173.052 22.2901 173.708 23.84 174.885 25.0171C176.107 26.2396 177.732 26.9004 179.416 26.9004C179.622 26.9004 179.828 26.89 180.035 26.8701V30.9839C179.277 31.1334 178.554 31.5009 177.968 32.0871L172.974 37.0807C172.669 37.3856 172.669 37.8803 172.974 38.1855C173.279 38.4906 173.774 38.4906 174.079 38.1855L179.072 33.1922C180.037 32.2272 181.607 32.2272 182.571 33.1922L187.588 38.2086C187.741 38.3612 187.941 38.4375 188.141 38.4375C188.341 38.4375 188.54 38.3612 188.693 38.2086C188.998 37.9035 188.998 37.4088 188.693 37.1039ZM180.022 15.8261C178.939 15.918 177.872 15.5347 177.09 14.7531C176.308 13.9713 175.924 12.9041 176.017 11.821C177.1 11.7288 178.167 12.1124 178.949 12.894C179.731 13.6759 180.114 14.7434 180.022 15.8261ZM182.869 15.7642C183.808 14.8255 185.098 14.3759 186.4 14.5148C186.538 15.8161 186.089 17.1063 185.15 18.0451C184.211 18.9841 182.922 19.4333 181.62 19.2944C181.606 19.162 181.599 19.0299 181.597 18.898V18.746C181.619 17.6364 182.062 16.5708 182.869 15.7642ZM180.816 4.40918C181.527 5.03083 181.939 5.9256 181.939 6.88813C181.939 7.85035 181.527 8.74512 180.816 9.36677C180.105 8.74512 179.693 7.85065 179.693 6.88813C179.693 5.9256 180.105 5.03083 180.816 4.40918ZM163.536 8.47291C163.536 9.69178 162.544 10.6836 161.325 10.6836C160.106 10.6836 159.115 9.69178 159.115 8.47291V6.60523H163.536V8.47291ZM158.725 3.7912C158.725 3.42377 159.024 3.125 159.391 3.125H163.085C163.452 3.125 163.751 3.42377 163.751 3.7912V5.04273H158.725V3.7912ZM167.525 24.8343C168.995 24.8343 170.191 26.0303 170.191 27.5V35.9766C170.191 36.4719 169.788 36.875 169.292 36.875C168.797 36.875 168.394 36.4719 168.394 35.9766V28.375C168.394 27.9437 168.044 27.5937 167.613 27.5937H160.864C159.213 27.5937 157.835 26.4026 157.543 24.8343H167.525ZM171.341 19.7455H164.351L162.833 18.0393C162.546 17.7167 162.053 17.688 161.73 17.9746C161.408 18.2614 161.379 18.7552 161.666 19.0778L162.199 19.6774V23.2718H157.486V15.7089C157.486 14.1138 158.784 12.8159 160.379 12.8159C161.301 12.8159 162.176 13.2611 162.718 14.007L165.292 17.5437C165.439 17.746 165.673 17.8653 165.923 17.8653H171.341C171.86 17.8653 172.282 18.2871 172.282 18.8056C172.282 19.3237 171.86 19.7455 171.341 19.7455ZM180.002 25.3028C178.525 25.4788 177.055 24.9777 175.99 23.9124C174.924 22.847 174.423 21.3773 174.599 19.9002C176.076 19.7232 177.546 20.2255 178.611 21.2909C179.527 22.2067 180.025 23.4216 180.035 24.6829V24.7934C180.032 24.9628 180.022 25.1328 180.002 25.3028Z" fill="#022B23"/>
<path d="M155.513 36.875C155.307 36.875 155.107 36.9586 154.961 37.1039C154.815 37.2491 154.732 37.4509 154.732 37.6563C154.732 37.8616 154.815 38.0634 154.961 38.2086C155.107 38.3539 155.307 38.4375 155.513 38.4375C155.718 38.4375 155.92 38.3539 156.066 38.2086C156.211 38.0634 156.295 37.8616 156.295 37.6563C156.295 37.4509 156.211 37.2491 156.066 37.1039C155.92 36.9586 155.718 36.875 155.513 36.875Z" fill="#022B23"/>
</g>
<defs>
<clipPath id="clip0_895_51">
<rect width="40" height="40" fill="white" transform="translate(149)"/>
</clipPath>
</defs>
</svg>
