<svg width="186" height="115" viewBox="0 0 186 115" fill="none" xmlns="http://www.w3.org/2000/svg">
<path d="M168.249 85.7433L168.594 86.1047L168.612 86.0872L168.629 86.0679L168.249 85.7433ZM51.0371 101.272L55.7251 104.642L56.2995 98.8971L51.0371 101.272ZM157.96 1.40729C158.965 2.1261 160.05 2.94679 161.188 3.86577L161.816 3.08772C160.663 2.15645 159.562 1.32405 158.542 0.594091L157.96 1.40729ZM167.242 9.31473C169.065 11.1413 170.901 13.1672 172.659 15.3807L173.442 14.7588C171.658 12.5127 169.797 10.4588 167.95 8.60823L167.242 9.31473ZM177.301 22.0496C178.671 24.3258 179.914 26.7416 180.966 29.289L181.89 28.9072C180.817 26.3094 179.551 23.8489 178.158 21.5339L177.301 22.0496ZM183.421 37.0098C183.998 39.5791 184.364 42.2536 184.469 45.0273L185.468 44.9894C185.36 42.152 184.987 39.4169 184.396 36.7906L183.421 37.0098ZM184.033 53.1114C183.663 55.6681 183.063 58.2965 182.202 60.9929L183.154 61.2973C184.032 58.5494 184.645 55.8671 185.023 53.2547L184.033 53.1114ZM179.174 68.52C178.051 70.8383 176.73 73.2006 175.193 75.6047L176.035 76.1433C177.592 73.7078 178.933 71.3113 180.074 68.9561L179.174 68.52ZM170.466 82.2469C169.642 83.2971 168.777 84.3544 167.868 85.4187L168.629 86.0679C169.546 84.9934 170.42 83.9254 171.252 82.864L170.466 82.2469ZM167.903 85.3818C167.02 86.226 166.08 87.0396 165.084 87.8226L165.702 88.6088C166.722 87.8067 167.686 86.9721 168.594 86.1047L167.903 85.3818ZM158.836 91.9378C156.74 93.0986 154.478 94.1685 152.053 95.1484L152.427 96.0756C154.887 95.0819 157.186 93.9949 159.32 92.8125L158.836 91.9378ZM144.943 97.6262C142.629 98.3186 140.199 98.9466 137.656 99.511L137.873 100.487C140.438 99.9181 142.891 99.2841 145.229 98.5842L144.943 97.6262ZM130.252 100.924C127.844 101.314 125.352 101.656 122.775 101.951L122.889 102.945C125.48 102.648 127.988 102.304 130.412 101.911L130.252 100.924ZM115.258 102.659C112.809 102.842 110.294 102.988 107.714 103.097L107.756 104.096C110.347 103.987 112.872 103.84 115.332 103.656L115.258 102.659ZM100.152 103.307C97.6881 103.341 95.1704 103.345 92.6001 103.318L92.5897 104.318C95.1678 104.345 97.6936 104.341 100.166 104.307L100.152 103.307ZM85.0445 103.158C82.5674 103.079 80.0457 102.975 77.48 102.845L77.4294 103.844C80.0011 103.974 82.5291 104.079 85.0128 104.157L85.0445 103.158ZM69.941 102.398C67.4621 102.23 64.9452 102.041 62.3908 101.829L62.3082 102.825C64.8674 103.038 67.3894 103.228 69.8736 103.396L69.941 102.398Z" fill="#022B23"/>
<path d="M13.7137 104.306L13.1543 100.388C13.1207 100.154 13.0504 99.9291 12.9457 99.7189L11.3668 96.5611L13.4871 94.0173L15.5317 96.0423L14.0301 95.2916C13.7215 95.1369 13.3457 95.2627 13.1918 95.5712C13.0379 95.8798 13.1629 96.2556 13.4715 96.4095L24.4121 101.88L24.2825 102.139C24.0418 102.62 23.645 103.017 23.1645 103.257L22.8465 103.417C22.5379 103.571 22.4129 103.946 22.5668 104.255C22.6762 104.474 22.8973 104.6 23.1262 104.6C23.22 104.6 23.3153 104.579 23.4051 104.534L23.7231 104.374C24.4442 104.014 25.0395 103.418 25.4004 102.697L26.1848 101.129C26.3395 100.82 26.2137 100.445 25.9051 100.291C25.5965 100.136 25.2207 100.262 25.0668 100.57L24.9715 100.761L19.2246 97.8877C18.9575 97.322 18.1457 95.6353 17.1879 93.9142C16.4184 92.5322 15.7895 91.5447 15.27 90.8345C16.5223 90.7002 17.5012 89.6369 17.5012 88.3494C17.5012 88.2837 17.4981 88.2181 17.4926 88.1525L20.0332 88.6673C20.0746 88.6759 20.116 88.6798 20.1575 88.6798C20.3778 88.6798 20.5864 88.5627 20.6989 88.3666C20.8332 88.133 20.8028 87.8408 20.6239 87.6392L16.4676 82.9712C16.2832 82.7634 15.9832 82.7033 15.7325 82.822L10.0879 85.5048C9.84496 85.6205 9.70277 85.8783 9.73558 86.1455C9.76839 86.4127 9.96839 86.6283 10.2317 86.6822L12.7817 87.1986C12.5996 87.5494 12.5004 87.9423 12.5004 88.3494C12.5004 88.522 12.5184 88.6908 12.5512 88.8533C11.5301 88.7353 10.5223 89.0634 9.54808 89.8369C8.67855 90.5267 7.83324 91.5712 6.96371 93.0291C5.24105 95.9173 4.55043 99.7103 4.40902 100.582L1.39496 104.199C1.23558 104.39 1.20511 104.657 1.31605 104.879L1.94105 106.129C2.04652 106.341 2.26292 106.474 2.50042 106.474H5.00043C5.21683 106.474 5.41839 106.362 5.53246 106.178C5.64652 105.994 5.65667 105.764 5.5598 105.57L5.13636 104.724L7.31761 102.542C7.34574 102.514 7.37152 102.483 7.39418 102.449L8.22308 101.218C8.41605 100.932 8.34027 100.543 8.05355 100.351C7.76761 100.158 7.37855 100.234 7.18636 100.52L6.39105 101.702L3.93402 104.159C3.74339 104.349 3.69652 104.639 3.81683 104.88L3.98949 105.225H2.88714L2.61761 104.686L5.48089 101.25C5.55511 101.161 5.60277 101.053 5.61918 100.939C5.62543 100.897 6.25043 96.6658 8.03714 93.6705C9.74105 90.8142 11.3403 89.683 12.9278 90.2119C13.1481 90.2853 14.0285 90.8134 16.0918 94.5173C16.2223 94.7517 16.3504 94.9861 16.4746 95.2166L13.8832 92.6502C13.759 92.5267 13.5879 92.4611 13.4137 92.4697C13.2387 92.4783 13.0754 92.5595 12.9637 92.6939L10.1457 96.0752C9.98636 96.2658 9.95589 96.533 10.0668 96.7548L11.8286 100.278C11.8739 100.368 11.9035 100.465 11.9184 100.565L12.5075 104.689C12.5262 104.823 12.5887 104.947 12.684 105.043L12.8668 105.226H11.7387L10.6075 100.699C10.5856 100.612 10.545 100.531 10.4895 100.46L7.98949 97.3353C7.77386 97.0658 7.38089 97.022 7.11136 97.2377C6.84183 97.4533 6.79808 97.8462 7.01371 98.1158L9.42855 101.135L10.6457 106.002C10.7153 106.281 10.9653 106.476 11.252 106.476H14.377C14.6301 106.476 14.8575 106.324 14.9543 106.09C15.0512 105.856 14.9973 105.588 14.8192 105.409L13.7168 104.306L13.7137 104.306ZM15.845 84.1533L18.4426 87.0705L12.3168 85.8298L15.845 84.1533ZM16.1582 87.8837C16.2176 88.0314 16.2496 88.1892 16.2496 88.3502C16.2496 89.0392 15.6887 89.6002 14.9996 89.6002C14.3106 89.6002 13.7496 89.0392 13.7496 88.3502C13.7496 88.0166 13.8825 87.7017 14.1129 87.4689L16.1582 87.883V87.8837Z" fill="#022B23"/>
<path d="M20.6258 103.35C19.5852 103.35 18.6383 104.22 18.0273 104.95C17.8812 105.125 17.6641 105.225 17.432 105.225H16.25C15.9047 105.225 15.625 105.504 15.625 105.85C15.625 106.195 15.9047 106.475 16.25 106.475H17.432C18.0344 106.475 18.6008 106.211 18.9859 105.752C19.5898 105.031 20.2031 104.6 20.6258 104.6C20.6984 104.6 20.7273 104.612 20.7289 104.611C20.732 104.615 20.7547 104.647 20.7695 104.74C20.825 105.081 21.1453 105.313 21.4867 105.257C21.8273 105.202 22.0586 104.881 22.0039 104.54C21.8828 103.795 21.368 103.35 20.6258 103.35Z" fill="#022B23"/>
<path d="M27.5 103.35C26.4594 103.35 25.5125 104.22 24.9016 104.95C24.7555 105.125 24.5383 105.225 24.3063 105.225H22.7773C22.432 105.225 22.1523 105.504 22.1523 105.85C22.1523 106.195 22.432 106.475 22.7773 106.475H24.3063C24.9086 106.475 25.475 106.211 25.8602 105.752C26.4641 105.031 27.0773 104.6 27.5 104.6C27.5727 104.6 27.6023 104.612 27.6031 104.611C27.6063 104.615 27.6289 104.647 27.6438 104.74C27.6992 105.081 28.0195 105.313 28.3609 105.257C28.7016 105.202 28.9328 104.881 28.8781 104.54C28.757 103.795 28.2422 103.35 27.5 103.35Z" fill="#022B23"/>
<path d="M34.375 103.35C33.3344 103.35 32.3875 104.22 31.7766 104.95C31.6305 105.125 31.4133 105.225 31.1813 105.225H29.6523C29.307 105.225 29.0273 105.504 29.0273 105.85C29.0273 106.195 29.307 106.475 29.6523 106.475H31.1813C31.7836 106.475 32.35 106.211 32.7352 105.752C33.3391 105.031 33.9523 104.6 34.375 104.6C34.4477 104.6 34.4758 104.612 34.4781 104.611C34.4813 104.615 34.5039 104.647 34.5188 104.74C34.5742 105.081 34.8953 105.313 35.2359 105.257C35.5766 105.202 35.8078 104.881 35.7531 104.54C35.632 103.795 35.1172 103.35 34.375 103.35Z" fill="#022B23"/>
<path d="M38.1242 105.225H36.5273C36.182 105.225 35.9023 105.504 35.9023 105.85C35.9023 106.195 36.182 106.475 36.5273 106.475H38.1242C38.4695 106.475 38.7492 106.195 38.7492 105.85C38.7492 105.504 38.4695 105.225 38.1242 105.225Z" fill="#022B23"/>
</svg>
