<svg width="181" height="181" viewBox="0 0 181 181" fill="none" xmlns="http://www.w3.org/2000/svg">
<circle cx="90.1387" cy="90.1108" r="90" fill="#C3F53E"/>
<circle cx="90.1387" cy="90.1109" r="39.3555" fill="#022B23"/>
<path d="M112.612 91.2245C112.641 90.6354 112.647 90.0402 112.629 89.4407C112.603 88.579 112.528 87.7307 112.409 86.897C96.5762 88.4793 81.3474 96.9174 73.7949 105.598C74.373 106.206 74.9844 106.782 75.6267 107.323C84.1745 98.141 99.6897 92.0493 112.612 91.2245Z" fill="white"/>
<path d="M84.5696 93.7058C80.0147 90.4278 74.337 87.4936 68.112 85.3707C67.8602 86.5419 67.6994 87.7457 67.6387 88.9745C72.836 90.5257 77.864 92.7132 82.189 95.4546C82.9604 94.8548 83.7552 94.2719 84.5696 93.7058Z" fill="white"/>
<path d="M69.7031 99.5953C70.6069 101.537 71.7779 103.325 73.1689 104.915C74.026 103.61 75.0066 102.34 76.0942 101.112C74.0434 100.515 71.9034 100.006 69.7031 99.5953Z" fill="white"/>
<path d="M80.4864 96.8372C76.6601 94.9422 72.3187 93.333 67.7051 92.163C67.8352 93.5971 68.098 94.9914 68.4831 96.3331C71.7317 97.0388 74.9219 97.989 77.9301 99.1748C78.7403 98.3741 79.5942 97.594 80.4864 96.8372Z" fill="white"/>
<path d="M112.085 95.0897C98.2495 95.7802 84.7105 101.39 76.5684 108.074C77.33 108.649 78.1284 109.177 78.9604 109.653C87.5676 103.723 99.6881 100.272 110.386 99.9267C111.128 98.4011 111.703 96.7806 112.085 95.0897Z" fill="white"/>
<path d="M80.792 110.591C83.8322 111.977 87.2286 112.707 90.7946 112.601C97.8803 112.39 104.102 108.928 108.075 103.69C98.04 104.022 88.2484 106.748 80.792 110.591Z" fill="white"/>
<path d="M93.216 76.2663L107.16 75.4041C102.883 70.4609 96.499 67.4111 89.4535 67.621C84.9272 67.7557 80.7552 69.2193 77.2951 71.6225L91.3094 72.489L74.9379 73.5013C73.1675 75.1196 71.6608 77.0169 70.4804 79.1189L87.1244 80.148L69.4323 81.2422C69.2752 81.6074 69.1243 81.9758 68.9863 82.3505C75.3594 84.8879 81.4109 88.4283 86.0866 92.6855C93.8943 87.613 103.261 84.1072 111.516 83.0841C110.822 80.9692 109.82 78.9979 108.57 77.2158L93.216 76.2663Z" fill="#C3F53E"/>
<path d="M90.8915 26.7403L91.0813 24.4416L93.8159 22.4352C94.2762 22.0957 94.6566 21.7961 94.9571 21.5364C95.263 21.2772 95.4972 21.0257 95.6595 20.7819C95.8219 20.5382 95.9148 20.275 95.9381 19.9924L95.9442 19.9191C95.9653 19.6637 95.9291 19.4391 95.8357 19.2453C95.7427 19.0462 95.5728 18.8844 95.3259 18.7601C95.0845 18.6362 94.7545 18.5569 94.3361 18.5224C93.8198 18.4797 93.3272 18.5156 92.8581 18.6301C92.3895 18.7391 91.9712 18.8687 91.6032 19.0188L92.0051 16.8361C92.2491 16.7304 92.5275 16.6385 92.8403 16.5604C93.1591 16.4773 93.5113 16.4189 93.8971 16.3851C94.2884 16.3517 94.7095 16.3537 95.1605 16.391C96.3778 16.4915 97.271 16.8389 97.8402 17.433C98.4094 18.0272 98.6536 18.8134 98.5728 19.7915L98.5634 19.9057C98.5212 20.4165 98.4044 20.8692 98.2132 21.2637C98.0219 21.6583 97.7446 22.0348 97.3812 22.3932C97.0238 22.7467 96.5683 23.1276 96.0147 23.536L94.361 24.7782L94.3226 25.2428L93.2613 24.7776L98.2337 25.1884L98.0566 27.3322L90.8915 26.7403Z" fill="#022B23"/>
<path d="M104.804 28.8294C104.121 28.6587 103.529 28.443 103.026 28.1824C102.529 27.9231 102.147 27.687 101.88 27.474L102.22 25.2066C102.435 25.3786 102.688 25.5572 102.979 25.7424C103.275 25.9289 103.603 26.1035 103.961 26.2663C104.321 26.4237 104.702 26.5527 105.104 26.6533C105.606 26.779 106.014 26.8221 106.328 26.7824C106.641 26.7428 106.882 26.6344 107.05 26.4572C107.219 26.2747 107.341 26.0354 107.415 25.7392L107.47 25.517C107.57 25.1203 107.547 24.7943 107.403 24.539C107.26 24.2784 106.97 24.0932 106.53 23.9834C106.139 23.8855 105.792 23.8914 105.489 24.0011C105.187 24.1055 104.925 24.2675 104.701 24.487L102.664 23.6316L104.157 17.6647L111.171 19.4196L110.659 21.4667L105.938 20.2856L105.539 21.8804L105.19 23.1758L105.269 23.1956C105.548 22.7989 105.908 22.5153 106.35 22.3448C106.792 22.1743 107.354 22.1744 108.036 22.3451C108.936 22.5701 109.529 23.0053 109.818 23.6507C110.107 24.2908 110.131 25.0923 109.891 26.055L109.807 26.3883C109.63 27.0971 109.343 27.6803 108.948 28.1378C108.554 28.59 108.019 28.8835 107.345 29.0183C106.672 29.1478 105.825 29.0848 104.804 28.8294Z" fill="#022B23"/>
<path d="M119.706 31.1326L120.147 22.6357L122.513 23.8837L122.216 27.2872L121.997 29.1044L122.112 29.1655L123.482 27.9551L126.116 25.7844L128.481 27.0324L121.731 32.2012L119.706 31.1326ZM118.33 33.4954L120.677 29.0464L122.905 30.2219L120.558 34.6709L118.33 33.4954Z" fill="#022B23"/>
<path d="M128.717 40.019L129.983 38.4536L130.011 38.3211L131.517 36.3123L131.701 36.0407C131.969 35.683 132.062 35.3406 131.98 35.0134C131.899 34.6863 131.611 34.3378 131.118 33.9681C130.686 33.6442 130.235 33.3912 129.765 33.209C129.295 33.0269 128.836 32.8764 128.386 32.7575L129.72 31.3344C129.997 31.3922 130.293 31.4745 130.608 31.5814C130.931 31.6872 131.267 31.8301 131.616 32.01C131.965 32.19 132.316 32.4125 132.669 32.6775C133.232 33.0995 133.654 33.5183 133.935 33.9338C134.217 34.3494 134.381 34.7621 134.428 35.1722C134.474 35.5822 134.422 35.9928 134.27 36.404C134.122 36.8108 133.897 37.2148 133.596 37.6161L130.686 41.4962L128.717 40.019ZM126.556 38.6334C125.914 38.1524 125.549 37.6262 125.46 37.0548C125.37 36.4833 125.55 35.8988 125.998 35.3012L126.131 35.1245C126.605 34.492 127.149 34.1708 127.763 34.161C128.385 34.1501 129.162 34.4092 130.094 34.9381L131.993 36.0048L131.208 37.2971L129.51 36.3711C129.171 36.1781 128.899 36.0865 128.694 36.0963C128.489 36.1061 128.309 36.2135 128.156 36.4185L128.121 36.4643C127.974 36.6606 127.92 36.8651 127.958 37.0777C127.999 37.286 128.159 37.4949 128.439 37.7043C128.683 37.8875 128.92 38.0075 129.15 38.0642C129.385 38.1242 129.603 38.1378 129.805 38.1051C130.01 38.068 130.196 37.9966 130.364 37.8908L130.037 38.9132L129.71 38.6678C129.43 38.8947 129.132 39.0659 128.813 39.1815C128.499 39.3003 128.156 39.3221 127.783 39.2469C127.41 39.1716 127.001 38.9671 126.556 38.6334Z" fill="#022B23"/>
<path d="M137.431 41.622L137.997 40.0515L138.419 40.4614C138.976 40.0748 139.521 39.8774 140.053 39.8691C140.593 39.8607 141.111 40.0975 141.608 40.5795C141.695 40.663 141.767 40.7448 141.826 40.8248C141.889 40.9087 141.946 40.9907 141.998 41.0709L140.327 42.971C140.267 42.8678 140.187 42.7592 140.085 42.6451C139.986 42.527 139.88 42.413 139.767 42.3029C139.383 41.931 138.99 41.6903 138.587 41.5809C138.188 41.4676 137.803 41.4813 137.431 41.622ZM132.527 43.156L138.123 37.383L139.814 39.0225L137.95 40.7926L138.11 40.9926L134.324 44.898L132.527 43.156Z" fill="#022B23"/>
<path d="M138.81 50.0674C138.409 49.571 138.092 49.0875 137.86 48.6168C137.622 48.1495 137.446 47.7274 137.331 47.3507L138.833 45.8647C138.961 46.301 139.129 46.7609 139.338 47.2445C139.554 47.729 139.848 48.2024 140.222 48.6648C140.52 49.0339 140.769 49.264 140.968 49.3551C141.176 49.4469 141.362 49.4261 141.527 49.2925L141.553 49.2719C141.667 49.1794 141.728 49.0638 141.735 48.9249C141.75 48.7869 141.708 48.5963 141.61 48.3532C141.515 48.1144 141.368 47.7884 141.167 47.3755C140.869 46.7543 140.679 46.2242 140.598 45.7852C140.521 45.3427 140.551 44.958 140.686 44.6313C140.83 44.3053 141.069 44.007 141.404 43.7364L141.455 43.6953C142.074 43.1952 142.715 43.0424 143.376 43.2369C144.042 43.4281 144.721 43.9521 145.413 44.8091C145.804 45.2928 146.11 45.7636 146.333 46.2216C146.556 46.6796 146.712 47.0898 146.801 47.4521L145.414 48.8457C145.303 48.4306 145.14 47.9983 144.924 47.5488C144.711 47.1035 144.439 46.6751 144.107 46.2636C143.905 46.0133 143.728 45.8297 143.578 45.7129C143.431 45.6003 143.302 45.54 143.19 45.532C143.082 45.5282 142.981 45.564 142.888 45.6394L142.869 45.6548C142.767 45.737 142.707 45.8412 142.69 45.9673C142.673 46.0934 142.704 46.2712 142.785 46.5008C142.868 46.7346 143.007 47.0538 143.2 47.4582C143.51 48.0768 143.721 48.6072 143.833 49.0496C143.949 49.4884 143.951 49.8763 143.837 50.2132C143.728 50.5467 143.483 50.8676 143.101 51.1759L143.044 51.2221C142.369 51.7668 141.683 51.9458 140.986 51.759C140.292 51.5689 139.567 51.005 138.81 50.0674Z" fill="#022B23"/>
<path d="M147.014 63.0383C146.383 61.6543 146.256 60.4565 146.633 59.4451C147.013 58.4387 147.855 57.6378 149.16 57.0424L150.968 56.2173C152.278 55.6197 153.446 55.5063 154.472 55.8771C155.506 56.2506 156.336 57.1245 156.963 58.4986C157.59 59.8727 157.705 61.07 157.307 62.0905C156.917 63.1136 156.067 63.924 154.758 64.5216L152.949 65.3467C151.645 65.9421 150.487 66.0509 149.475 65.6733C148.464 65.2957 147.644 64.4174 147.014 63.0383ZM148.934 62.1623C149.208 62.7625 149.588 63.1286 150.074 63.2606C150.559 63.3926 151.12 63.3137 151.755 63.0239L153.794 62.0936C154.458 61.7903 154.902 61.4108 155.126 60.9551C155.35 60.4994 155.325 59.9715 155.051 59.3712C154.777 58.771 154.394 58.406 153.904 58.2763C153.413 58.1466 152.835 58.2334 152.171 58.5367L150.132 59.4671C149.497 59.7568 149.07 60.1284 148.851 60.5818C148.633 61.0352 148.66 61.562 148.934 62.1623Z" fill="#022B23"/>
<path d="M161.859 70.6812C161.978 71.1065 162.055 71.5098 162.088 71.8912C162.128 72.2764 162.139 72.6187 162.121 72.9183L160.399 73.6225C160.398 73.3963 160.385 73.1592 160.361 72.9111C160.337 72.6631 160.285 72.3999 160.207 72.1217C160.115 71.7909 160.005 71.5414 159.878 71.373C159.759 71.2084 159.625 71.1071 159.479 71.0689C159.339 71.0346 159.182 71.0417 159.009 71.0903L158.993 71.0947C158.867 71.1301 158.759 71.1801 158.67 71.2449C158.582 71.3149 158.501 71.3886 158.426 71.4662L157.934 69.9224L158.178 69.8539C158.206 69.5514 158.306 69.2714 158.477 69.0138C158.65 68.7615 158.917 68.5844 159.28 68.4828L159.319 68.4717C159.881 68.3141 160.378 68.4097 160.81 68.7585C161.248 69.1111 161.598 69.752 161.859 70.6812ZM150.517 71.2224L157.234 69.3372L157.908 71.739L151.191 73.6242L150.517 71.2224ZM155.722 68.6402L157.62 68.1076L158.187 70.191L158.459 71.1001L159.255 73.9351L157.302 74.2708L155.722 68.6402Z" fill="#022B23"/>
<path d="M152.962 81.9449L163.393 81.2585L163.557 83.756L153.126 84.4423L152.962 81.9449ZM153.011 82.6876L155.141 82.5474L155.573 89.1093L153.443 89.2495L153.011 82.6876ZM157.327 83.1249L159.375 82.9901L159.747 88.6379L157.698 88.7727L157.327 83.1249ZM161.335 82.1316L163.441 81.9931L163.868 88.4897L161.763 88.6282L161.335 82.1316Z" fill="#022B23"/>
<path d="M153.49 91.5427L157.788 94.2601L157.111 94.1995L161.493 92.3176L161.253 94.9978L158.329 96.0989L158.315 96.2537L160.997 97.8491L160.757 100.521L156.78 97.8981L157.456 97.9587L152.744 99.8684L152.984 97.1882L156.05 96.0506L156.064 95.8959L153.25 94.2229L153.49 91.5427Z" fill="#022B23"/>
<path d="M151.096 106.241C151.212 105.776 151.387 105.404 151.621 105.125C151.854 104.846 152.134 104.647 152.462 104.527C152.794 104.413 153.158 104.364 153.554 104.379L153.711 103.753L155.202 104.734C154.876 104.664 154.589 104.656 154.339 104.711C154.087 104.772 153.874 104.893 153.7 105.074C153.529 105.261 153.406 105.503 153.332 105.799C153.22 106.244 153.265 106.612 153.467 106.904C153.673 107.204 154.035 107.418 154.554 107.548L155.664 107.827C156.183 107.958 156.6 107.942 156.916 107.779C157.231 107.622 157.444 107.322 157.556 106.877C157.618 106.629 157.628 106.39 157.584 106.159C157.54 105.935 157.456 105.731 157.333 105.548C157.214 105.372 157.063 105.227 156.878 105.113L158.136 104.839L157.974 105.481C158.303 105.648 158.585 105.86 158.818 106.115C159.058 106.372 159.218 106.685 159.299 107.054C159.386 107.424 159.366 107.864 159.238 108.371C159.01 109.281 158.538 109.893 157.824 110.209C157.113 110.53 156.163 110.542 154.973 110.243L154.021 110.004C152.821 109.702 151.973 109.239 151.478 108.614C150.981 107.995 150.854 107.204 151.096 106.241ZM149.747 100.834L160.274 103.479L159.668 105.89L157.586 105.283L157.296 105.26L154.297 104.507L153.893 104.372L151.791 103.911L149.141 103.245L149.747 100.834Z" fill="#022B23"/>
<path d="M147.966 115.198C148.546 113.858 149.273 112.996 150.146 112.613C151.024 112.233 152.036 112.291 153.182 112.788L153.947 113.119C155.078 113.609 155.814 114.284 156.154 115.145C156.499 116.008 156.424 117.012 155.927 118.158C155.593 118.928 155.183 119.511 154.697 119.907C154.213 120.309 153.674 120.533 153.078 120.578C152.48 120.628 151.841 120.505 151.16 120.211L150.912 120.103C150.722 120.021 150.532 119.926 150.34 119.82C150.151 119.72 149.979 119.618 149.821 119.515L150.719 117.443C151 117.589 151.268 117.72 151.521 117.835C151.779 117.953 152.013 118.057 152.223 118.148C152.528 118.281 152.804 118.344 153.05 118.337C153.302 118.333 153.526 118.255 153.722 118.103C153.917 117.955 154.082 117.727 154.216 117.416C154.415 116.956 154.437 116.564 154.28 116.241C154.126 115.924 153.821 115.667 153.366 115.47L152.69 115.177L152.436 115.085L151.911 114.858C151.72 114.775 151.527 114.727 151.331 114.713C151.133 114.705 150.935 114.75 150.738 114.849C150.543 114.955 150.349 115.129 150.155 115.371C149.963 115.621 149.774 115.961 149.588 116.392C149.391 116.847 149.243 117.303 149.146 117.76C149.054 118.22 149 118.674 148.983 119.125L147.338 118.189C147.311 117.773 147.347 117.311 147.449 116.802C147.551 116.293 147.723 115.759 147.966 115.198ZM152.28 113.841L153.698 114.455L151.442 119.664L150.023 119.049L152.28 113.841Z" fill="#022B23"/>
<path d="M148.185 125.045L149.843 125.239L149.54 125.744C150.043 126.198 150.359 126.684 150.488 127.2C150.619 127.724 150.506 128.282 150.15 128.876C150.088 128.979 150.025 129.068 149.96 129.144C149.893 129.224 149.826 129.299 149.759 129.367L147.529 128.171C147.616 128.09 147.704 127.987 147.792 127.861C147.884 127.739 147.971 127.61 148.053 127.474C148.328 127.016 148.473 126.578 148.488 126.161C148.508 125.747 148.407 125.375 148.185 125.045ZM145.578 120.617L152.471 124.756L151.258 126.775L149.111 125.362L148.953 125.563L144.289 122.763L145.578 120.617Z" fill="#022B23"/>
<path d="M142.091 126.17L148.609 130.878L147.143 132.907L140.626 128.199L142.091 126.17ZM148.493 132.338C148.767 131.958 149.053 131.744 149.35 131.696C149.651 131.651 149.95 131.736 150.246 131.95L150.292 131.983C150.589 132.197 150.761 132.453 150.809 132.75C150.856 133.047 150.743 133.385 150.468 133.765C150.2 134.137 149.918 134.346 149.621 134.394C149.321 134.446 149.023 134.366 148.726 134.152L148.68 134.118C148.379 133.901 148.207 133.642 148.162 133.34C148.114 133.044 148.224 132.709 148.493 132.338Z" fill="#022B23"/>
<path d="M136.787 132.484C137.768 131.401 138.734 130.82 139.684 130.739C140.637 130.661 141.576 131.042 142.501 131.881L143.119 132.442C144.032 133.27 144.511 134.146 144.556 135.07C144.605 135.998 144.21 136.925 143.371 137.849C142.807 138.471 142.231 138.891 141.643 139.109C141.056 139.334 140.473 139.372 139.894 139.223C139.312 139.078 138.746 138.756 138.197 138.258L137.997 138.076C137.843 137.937 137.693 137.786 137.546 137.623C137.4 137.468 137.269 137.316 137.153 137.168L138.67 135.496C138.89 135.724 139.101 135.934 139.303 136.125C139.509 136.32 139.697 136.494 139.867 136.648C140.113 136.871 140.354 137.02 140.589 137.093C140.829 137.17 141.066 137.168 141.301 137.087C141.533 137.01 141.762 136.847 141.99 136.596C142.327 136.225 142.473 135.861 142.429 135.504C142.385 135.155 142.179 134.813 141.811 134.48L141.266 133.985L141.055 133.816L140.631 133.432C140.478 133.292 140.31 133.185 140.129 133.109C139.944 133.036 139.742 133.015 139.524 133.045C139.306 133.083 139.065 133.185 138.803 133.353C138.542 133.527 138.253 133.789 137.938 134.136C137.605 134.503 137.319 134.888 137.079 135.289C136.844 135.695 136.646 136.108 136.485 136.529L135.229 135.113C135.337 134.71 135.521 134.284 135.781 133.836C136.041 133.387 136.376 132.936 136.787 132.484ZM141.308 132.588L142.453 133.627L138.639 137.831L137.494 136.792L141.308 132.588Z" fill="#022B23"/>
<path d="M128.763 140.183L131.722 143.87C131.906 144.1 132.094 144.274 132.287 144.392C132.483 144.514 132.687 144.564 132.899 144.54C133.111 144.517 133.338 144.408 133.581 144.214C133.781 144.053 133.928 143.876 134.023 143.68C134.122 143.49 134.175 143.29 134.182 143.081C134.189 142.88 134.156 142.683 134.084 142.489L135.116 143.16L134.784 143.426C134.945 143.766 135.039 144.11 135.067 144.458C135.09 144.81 135.019 145.161 134.852 145.511C134.689 145.866 134.399 146.21 133.983 146.544C133.515 146.92 133.059 147.135 132.614 147.191C132.173 147.252 131.739 147.159 131.312 146.915C130.881 146.674 130.45 146.285 130.02 145.749L126.811 141.749L128.763 140.183ZM132.795 136.948L137.827 143.219L135.887 144.775L134.692 143.155L134.467 143.031L130.843 138.514L132.795 136.948Z" fill="#022B23"/>
<path d="M121.686 144.669C122.793 144.036 123.781 143.857 124.649 144.134C125.517 144.41 126.252 145.076 126.856 146.132L127.27 146.856C127.862 147.893 128.058 148.856 127.856 149.744C127.653 150.632 127.001 151.391 125.898 152.021C125.614 152.184 125.337 152.314 125.066 152.412C124.798 152.515 124.54 152.59 124.291 152.638C124.042 152.687 123.817 152.715 123.614 152.724L122.41 151.029C122.718 151.029 123.035 150.991 123.363 150.917C123.694 150.847 124.035 150.712 124.385 150.512C124.934 150.198 125.256 149.838 125.351 149.433C125.445 149.027 125.349 148.573 125.062 148.071L124.717 147.468C124.425 146.956 124.07 146.638 123.653 146.512C123.236 146.386 122.75 146.482 122.196 146.798C121.851 146.996 121.564 147.213 121.335 147.451C121.104 147.696 120.902 147.956 120.726 148.232L119.866 146.331C120.036 146.058 120.276 145.773 120.584 145.478C120.892 145.182 121.26 144.912 121.686 144.669Z" fill="#022B23"/>
<path d="M112.418 149.078C113.784 148.56 114.909 148.481 115.791 148.84C116.676 149.205 117.34 149.971 117.782 151.139L118.078 151.919C118.515 153.071 118.543 154.069 118.163 154.913C117.785 155.762 117.012 156.407 115.845 156.85C115.059 157.148 114.356 157.26 113.733 157.187C113.107 157.121 112.571 156.89 112.123 156.494C111.671 156.1 111.313 155.556 111.05 154.862L110.954 154.61C110.881 154.416 110.816 154.214 110.759 154.002C110.699 153.797 110.651 153.602 110.616 153.417L112.727 152.617C112.819 152.921 112.911 153.203 113.005 153.465C113.1 153.733 113.188 153.973 113.27 154.187C113.387 154.498 113.535 154.74 113.711 154.912C113.889 155.09 114.101 155.196 114.347 155.231C114.589 155.268 114.868 155.226 115.184 155.106C115.653 154.928 115.949 154.67 116.071 154.332C116.191 154.001 116.162 153.604 115.987 153.14L115.726 152.452L115.615 152.205L115.412 151.67C115.338 151.476 115.238 151.304 115.111 151.154C114.979 151.006 114.809 150.895 114.601 150.822C114.389 150.757 114.129 150.739 113.819 150.769C113.507 150.806 113.131 150.907 112.693 151.073C112.229 151.249 111.799 151.462 111.404 151.711C111.01 151.965 110.646 152.243 110.311 152.544L109.836 150.713C110.115 150.403 110.472 150.107 110.908 149.826C111.343 149.544 111.847 149.295 112.418 149.078ZM116.398 151.226L116.946 152.671L111.638 154.683L111.09 153.238L116.398 151.226Z" fill="#022B23"/>
<path d="M101.441 157.283L103.137 158.137L102.036 159.596L102.058 159.642L103.762 159.661L103.564 161.555L101.789 161.083L101.761 161.12L102.245 162.82L100.212 163.103L100.221 161.335L100.185 161.307L98.5977 162.246L97.889 160.479L99.531 159.994L99.5323 159.944L98.0741 158.842L99.4643 157.559L100.653 158.979L100.702 158.972L101.441 157.283Z" fill="#022B23"/>
<path d="M89.0578 153.486L88.8559 155.784L86.1109 157.776C85.6488 158.113 85.2668 158.411 84.965 158.669C84.6577 158.926 84.4222 159.177 84.2586 159.419C84.0949 159.662 84.0007 159.925 83.9758 160.207L83.9694 160.281C83.9469 160.536 83.9819 160.761 84.0743 160.955C84.1663 161.155 84.3353 161.317 84.5816 161.443C84.8224 161.568 85.1519 161.649 85.5701 161.686C86.0862 161.731 86.579 161.698 87.0486 161.586C87.5178 161.479 87.9368 161.352 88.3056 161.204L87.8923 163.384C87.6477 163.489 87.3688 163.579 87.0556 163.656C86.7364 163.737 86.3839 163.794 85.9979 163.826C85.6065 163.857 85.1854 163.853 84.7345 163.813C83.5178 163.706 82.6264 163.354 82.0603 162.757C81.4943 162.16 81.2542 161.372 81.3402 160.395L81.3502 160.281C81.3951 159.77 81.5142 159.318 81.7075 158.924C81.9008 158.531 82.1801 158.156 82.5453 157.799C82.9047 157.448 83.3622 157.069 83.9178 156.664L85.5781 155.43L85.6189 154.966L86.6777 155.436L81.7076 155L81.8959 152.857L89.0578 153.486Z" fill="#022B23"/>
<path d="M75.1572 151.324C75.8387 151.498 76.43 151.717 76.9311 151.98C77.4269 152.242 77.8078 152.48 78.0738 152.695L77.7221 154.96C77.5075 154.787 77.2552 154.607 76.9653 154.42C76.6701 154.232 76.3437 154.056 75.9862 153.891C75.6274 153.732 75.2472 153.601 74.8457 153.498C74.3439 153.37 73.9361 153.324 73.6225 153.362C73.3088 153.4 73.0675 153.507 72.8986 153.684C72.7283 153.865 72.6053 154.104 72.5297 154.4L72.4729 154.622C72.3715 155.018 72.3922 155.344 72.5349 155.6C72.6763 155.861 72.9663 156.048 73.4047 156.16C73.7956 156.26 74.1428 156.256 74.4463 156.148C74.7484 156.045 75.0118 155.885 75.2365 155.666L77.2691 156.533L75.7444 162.491L68.7397 160.699L69.2627 158.655L73.9775 159.861L74.385 158.268L74.7413 156.975L74.662 156.955C74.3808 157.35 74.0189 157.632 73.5762 157.8C73.1336 157.968 72.5715 157.965 71.8901 157.791C70.992 157.561 70.4006 157.122 70.1159 156.475C69.8298 155.834 69.8097 155.032 70.0557 154.071L70.1409 153.738C70.322 153.03 70.6115 152.448 71.0094 151.993C71.406 151.543 71.9419 151.252 72.6171 151.121C73.291 150.995 74.1377 151.063 75.1572 151.324Z" fill="#022B23"/>
<path d="M60.2686 148.942L59.7822 157.436L57.4233 156.176L57.7387 152.774L57.9672 150.958L57.8518 150.896L56.4763 152.099L53.8308 154.256L51.4718 152.996L58.2487 147.862L60.2686 148.942ZM61.6571 146.586L59.2864 151.023L57.0646 149.836L59.4352 145.399L61.6571 146.586Z" fill="#022B23"/>
<path d="M51.3044 140.008L50.03 141.567L50.0015 141.699L48.4843 143.7L48.2997 143.971C48.0295 144.327 47.9345 144.669 48.0145 144.997C48.0946 145.324 48.3801 145.674 48.8711 146.046C49.3012 146.373 49.7509 146.628 50.2199 146.813C50.689 146.997 51.1479 147.15 51.5965 147.271L50.2558 148.687C49.9791 148.628 49.6835 148.544 49.3689 148.436C49.0466 148.328 48.7115 148.184 48.3635 148.002C48.0155 147.82 47.6655 147.596 47.3135 147.329C46.753 146.904 46.3332 146.483 46.054 146.066C45.7749 145.649 45.6129 145.235 45.5682 144.825C45.5235 144.415 45.578 144.004 45.7317 143.594C45.8822 143.188 46.109 142.785 46.4121 142.385L49.3427 138.521L51.3044 140.008ZM53.458 141.405C54.0967 141.889 54.4593 142.418 54.5457 142.989C54.6321 143.561 54.4496 144.145 53.9983 144.74L53.8648 144.916C53.3871 145.546 52.8412 145.864 52.2272 145.871C51.6055 145.879 50.8299 145.616 49.9002 145.082L48.0067 144.005L48.7987 142.717L50.4918 143.652C50.8299 143.847 51.1015 143.94 51.3066 143.931C51.5117 143.922 51.6917 143.816 51.8465 143.612L51.8811 143.566C52.0294 143.37 52.085 143.166 52.0479 142.953C52.0076 142.745 51.8484 142.535 51.5703 142.324C51.327 142.14 51.0904 142.019 50.8606 141.961C50.6265 141.899 50.4084 141.885 50.2065 141.916C50.0013 141.952 49.8144 142.023 49.6459 142.128L49.9785 141.107L50.3043 141.354C50.5847 141.129 50.8844 140.959 51.2035 140.845C51.5182 140.728 51.8618 140.708 52.2344 140.785C52.607 140.862 53.0148 141.069 53.458 141.405Z" fill="#022B23"/>
<path d="M42.5985 138.36L42.0247 139.927L41.604 139.515C41.045 139.899 40.4995 140.094 39.9674 140.099C39.4277 140.105 38.9104 139.865 38.4157 139.381C38.33 139.297 38.2578 139.214 38.1992 139.134C38.1366 139.05 38.0798 138.968 38.0289 138.887L39.7098 136.996C39.7687 137.099 39.8489 137.208 39.9503 137.323C40.048 137.442 40.1533 137.556 40.2662 137.667C40.648 138.041 41.0399 138.283 41.4421 138.395C41.8404 138.51 42.2259 138.499 42.5985 138.36ZM47.5108 136.852L41.8845 142.595L40.2018 140.947L42.0749 139.187L41.9167 138.986L45.7228 135.1L47.5108 136.852Z" fill="#022B23"/>
<path d="M41.2652 129.907C41.6634 130.406 41.9777 130.891 42.2082 131.363C42.4429 131.831 42.6167 132.254 42.7297 132.632L41.2201 134.11C41.0944 133.673 40.9286 133.212 40.7229 132.727C40.5095 132.242 40.2173 131.767 39.8463 131.302C39.5502 130.932 39.3026 130.7 39.1034 130.608C38.8965 130.515 38.71 130.535 38.5439 130.668L38.5183 130.688C38.4033 130.78 38.3419 130.895 38.3341 131.034C38.3187 131.172 38.3594 131.363 38.4563 131.607C38.5498 131.846 38.6957 132.173 38.8938 132.587C39.1888 133.209 39.3758 133.74 39.4547 134.18C39.5293 134.623 39.498 135.007 39.3606 135.333C39.2156 135.659 38.9749 135.956 38.6383 136.224L38.5872 136.265C37.9652 136.762 37.3238 136.912 36.6631 136.714C35.9982 136.519 35.322 135.991 34.6345 135.131C34.2465 134.645 33.9424 134.173 33.7222 133.713C33.5019 133.254 33.3481 132.843 33.2606 132.48L34.6552 131.094C34.7639 131.51 34.925 131.943 35.1384 132.394C35.3485 132.84 35.6185 133.27 35.9487 133.683C36.1494 133.934 36.3247 134.119 36.4745 134.237C36.6209 134.35 36.7499 134.411 36.8615 134.42C36.9696 134.424 37.0705 134.389 37.1643 134.314L37.1834 134.298C37.2857 134.217 37.3458 134.113 37.3638 133.987C37.3817 133.861 37.3512 133.683 37.2722 133.453C37.1897 133.219 37.0529 132.899 36.8615 132.493C36.5546 131.873 36.3463 131.342 36.2367 130.899C36.1229 130.459 36.1236 130.071 36.2388 129.735C36.3498 129.402 36.597 129.082 36.9804 128.776L37.0379 128.73C37.7153 128.189 38.4022 128.014 39.0987 128.204C39.7909 128.398 40.5131 128.966 41.2652 129.907Z" fill="#022B23"/>
<path d="M33.1295 116.892C33.7537 118.279 33.8743 119.477 33.4913 120.487C33.1061 121.491 32.2596 122.288 30.9518 122.876L29.1392 123.691C27.8264 124.282 26.6579 124.389 25.6336 124.013C24.6021 123.634 23.7764 122.756 23.1567 121.378C22.537 120.001 22.4286 118.803 22.8314 117.785C23.2271 116.764 24.0813 115.958 25.3941 115.367L27.2066 114.552C28.5145 113.963 29.6731 113.861 30.6825 114.244C31.6919 114.626 32.5075 115.509 33.1295 116.892ZM31.2051 117.757C30.9343 117.156 30.5565 116.788 30.0714 116.653C29.5863 116.518 29.0256 116.594 28.3891 116.881L26.3453 117.8C25.6789 118.1 25.2327 118.477 25.0067 118.932C24.7807 119.386 24.803 119.914 25.0737 120.516C25.3444 121.118 25.7248 121.485 26.2148 121.617C26.7048 121.749 27.283 121.665 27.9494 121.366L29.9932 120.446C30.6297 120.16 31.0585 119.791 31.2795 119.338C31.5006 118.886 31.4758 118.359 31.2051 117.757Z" fill="#022B23"/>
<path d="M18.3247 109.17C18.2076 108.745 18.1333 108.341 18.102 107.959C18.0639 107.574 18.0546 107.232 18.074 106.932L19.8 106.237C19.8 106.463 19.8115 106.7 19.8345 106.949C19.8575 107.197 19.9073 107.46 19.9839 107.739C20.0749 108.07 20.1833 108.32 20.3089 108.489C20.4279 108.654 20.5606 108.757 20.707 108.795C20.8467 108.831 21.0033 108.824 21.1768 108.777L21.1926 108.772C21.3188 108.738 21.4268 108.688 21.5165 108.624C21.6049 108.554 21.6865 108.481 21.7614 108.404L22.2459 109.95L22.0014 110.017C21.9715 110.32 21.8702 110.599 21.6976 110.856C21.5235 111.107 21.2551 111.283 20.8923 111.383L20.8529 111.393C20.2903 111.548 19.7939 111.45 19.3637 111.099C18.9269 110.744 18.5805 110.101 18.3247 109.17ZM29.6695 108.69L22.9423 110.539L22.281 108.134L29.0082 106.284L29.6695 108.69ZM24.4509 111.244L22.5502 111.767L21.9936 109.68L21.7263 108.77L20.9458 105.931L22.9006 105.605L24.4509 111.244Z" fill="#022B23"/>
<path d="M27.2806 97.9533L16.8467 98.5848L16.6955 96.0866L27.1294 95.455L27.2806 97.9533ZM27.2356 97.2104L25.1048 97.3393L24.7075 90.7753L26.8383 90.6463L27.2356 97.2104ZM22.9222 96.7503L20.873 96.8744L20.5311 91.2247L22.5803 91.1007L22.9222 96.7503ZM18.9086 97.7226L16.8022 97.8501L16.4089 91.3513L18.5152 91.2238L18.9086 97.7226Z" fill="#022B23"/>
<path d="M26.803 88.3546L22.5197 85.6146L23.1955 85.6788L18.8042 87.5377L19.0586 84.8588L21.9879 83.7731L22.0026 83.6184L19.3291 82.0089L19.5827 79.3381L23.5465 81.9821L22.8706 81.9179L27.593 80.0329L27.3387 82.7118L24.2663 83.8333L24.2516 83.988L27.0573 85.6757L26.803 88.3546Z" fill="#022B23"/>
<path d="M29.2753 73.6672C29.1559 74.1319 28.9789 74.5031 28.7443 74.7806C28.5097 75.0581 28.2281 75.256 27.8993 75.3742C27.5666 75.4858 27.2026 75.533 26.8073 75.5159L26.6465 76.1417L25.1612 75.1521C25.486 75.2243 25.7736 75.2334 26.0239 75.1795C26.2756 75.1203 26.4893 75.0007 26.665 74.8207C26.8369 74.634 26.9608 74.3928 27.0367 74.097C27.1507 73.6534 27.1075 73.2848 26.907 72.9912C26.7027 72.691 26.3417 72.4744 25.8241 72.3414L24.7151 72.0565C24.1975 71.9235 23.7802 71.9373 23.463 72.0979C23.1473 72.2533 22.9324 72.5527 22.8184 72.9964C22.7546 73.2446 22.7438 73.4839 22.786 73.7143C22.8295 73.9394 22.9121 74.1436 23.0339 74.3269C23.1518 74.5036 23.303 74.6494 23.4874 74.7643L22.2279 75.0319L22.3928 74.3902C22.0645 74.2214 21.7842 74.0087 21.5518 73.7519C21.3141 73.4938 21.1555 73.18 21.0759 72.8105C20.991 72.4396 21.0137 72.0007 21.1439 71.4937C21.3773 70.5853 21.8521 69.9754 22.5683 69.664C23.2805 69.3459 24.2308 69.3395 25.4191 69.6448L26.3698 69.889C27.5686 70.197 28.414 70.6647 28.9058 71.2922C29.3991 71.9143 29.5222 72.706 29.2753 73.6672ZM30.595 79.0816L20.0826 76.3808L20.7013 73.9725L22.7803 74.5911L23.0698 74.6148L26.0643 75.3841L26.4681 75.5216L28.5678 75.9935L31.2137 76.6733L30.595 79.0816Z" fill="#022B23"/>
<path d="M32.4514 64.7269C31.8633 66.0647 31.1318 66.9225 30.2569 67.3004C29.377 67.676 28.3655 67.6125 27.2224 67.11L26.4587 66.7743C25.3305 66.2784 24.5986 65.5992 24.2629 64.7369C23.9222 63.8723 24.0031 62.8685 24.5057 61.7254C24.8436 60.9567 25.2568 60.3759 25.7452 59.983C26.2307 59.583 26.7716 59.3621 27.3677 59.3204C27.966 59.2736 28.6046 59.3995 29.2835 59.6979L29.5306 59.8066C29.7203 59.89 29.9106 59.9855 30.1015 60.0933C30.2896 60.1938 30.4619 60.2964 30.6184 60.4009L29.71 62.4675C29.4292 62.3203 29.1627 62.1882 28.9103 62.0713C28.6529 61.9522 28.4194 61.8466 28.2097 61.7544C27.9052 61.6206 27.6298 61.5561 27.3834 61.5609C27.1321 61.5636 26.9076 61.6407 26.71 61.792C26.5146 61.9385 26.3489 62.1664 26.2128 62.4759C26.011 62.9351 25.9876 63.3269 26.1429 63.6513C26.2953 63.9685 26.5986 64.2269 27.0529 64.4266L27.7268 64.7228L27.9805 64.8165L28.5046 65.0469C28.6943 65.1303 28.8872 65.1793 29.0832 65.194C29.2815 65.2038 29.4795 65.1598 29.6773 65.0621C29.8723 64.9572 30.0676 64.7839 30.2632 64.5423C30.4559 64.2935 30.6467 63.9544 30.8354 63.5252C31.0351 63.0709 31.1847 62.6155 31.2841 62.1589C31.3786 61.7 31.4355 61.2455 31.4547 60.7953L33.0945 61.7396C33.12 62.1558 33.0807 62.618 32.9764 63.1261C32.8722 63.6343 32.6972 64.1679 32.4514 64.7269ZM28.13 66.0616L26.7148 65.4395L28.9992 60.2431L30.4144 60.8652L28.13 66.0616Z" fill="#022B23"/>
<path d="M32.2835 54.8822L30.6265 54.6795L30.9323 54.1762C30.4317 53.7189 30.1183 53.2318 29.9921 52.7149C29.8641 52.1905 29.9799 51.6324 30.3394 51.0405C30.4017 50.938 30.4653 50.8491 30.5303 50.7737C30.598 50.6936 30.6653 50.6197 30.7321 50.5518L32.9558 51.7592C32.8684 51.84 32.7804 51.9429 32.6918 52.0677C32.5985 52.1897 32.5108 52.3183 32.4287 52.4534C32.1513 52.9101 32.0039 53.347 31.9866 53.764C31.9647 54.1781 32.0637 54.5508 32.2835 54.8822ZM34.8681 59.3235L27.9966 55.1489L29.2197 53.1357L31.3594 54.5601L31.519 54.3603L36.1676 57.1845L34.8681 59.3235Z" fill="#022B23"/>
<path d="M38.3844 53.7875L31.8915 49.0455L33.3677 47.0243L39.8606 51.7664L38.3844 53.7875ZM32.0153 47.5863C31.7388 47.965 31.4519 48.1775 31.1547 48.2238C30.8532 48.2669 30.5549 48.1807 30.2598 47.9652L30.2136 47.9315C29.9186 47.716 29.7479 47.4597 29.7016 47.1625C29.6553 46.8654 29.7704 46.5274 30.047 46.1487C30.3171 45.7789 30.6008 45.5708 30.898 45.5244C31.1983 45.4737 31.496 45.5561 31.7911 45.7716L31.8373 45.8054C32.1367 46.024 32.308 46.2842 32.3511 46.5857C32.3974 46.8829 32.2855 47.2164 32.0153 47.5863Z" fill="#022B23"/>
<path d="M43.7207 47.5027C42.7332 48.5799 41.7644 49.1565 40.8145 49.2325C39.8605 49.3048 38.9233 48.9191 38.0028 48.0753L37.3879 47.5115C36.4795 46.6788 36.0052 45.8001 35.965 44.8756C35.9209 43.9475 36.3207 43.0231 37.1645 42.1027C37.7319 41.4837 38.3101 41.0669 38.899 40.8522C39.4875 40.6298 40.0707 40.5948 40.6485 40.7472C41.23 40.8956 41.794 41.2204 42.3407 41.7215L42.5396 41.9039C42.6924 42.044 42.8418 42.1957 42.9878 42.3592C43.1335 42.5149 43.2636 42.6675 43.3782 42.8169L41.8527 44.4809C41.6343 44.2512 41.4245 44.0403 41.2232 43.8483C41.0178 43.6527 40.8308 43.4775 40.662 43.3228C40.4168 43.098 40.1768 42.9483 39.942 42.8736C39.7031 42.7952 39.4658 42.7958 39.23 42.8755C38.9979 42.9512 38.7676 43.1137 38.5391 43.3629C38.2001 43.7327 38.0519 44.0961 38.0944 44.4532C38.1366 44.8025 38.3406 45.1449 38.7064 45.4802L39.249 45.9776L39.459 46.148L39.881 46.5349C40.0338 46.6749 40.2006 46.7834 40.3815 46.8605C40.566 46.9335 40.7677 46.9556 40.9864 46.9268C41.2048 46.8903 41.4455 46.7892 41.7084 46.6234C41.971 46.4499 42.2608 46.1903 42.5777 45.8446C42.913 45.4788 43.2012 45.0958 43.4424 44.6955C43.6796 44.2916 43.8798 43.8796 44.0429 43.4596L45.2914 44.8815C45.1815 45.2838 44.9955 45.7087 44.7332 46.1562C44.4709 46.6037 44.1334 47.0525 43.7207 47.5027ZM39.1997 47.3749L38.0602 46.3303L41.896 42.1461L43.0355 43.1907L39.1997 47.3749Z" fill="#022B23"/>
<path d="M51.7865 39.8454L48.8473 36.1425C48.6642 35.9119 48.4767 35.737 48.2847 35.6179C48.0893 35.4945 47.8855 35.4439 47.6734 35.4661C47.4613 35.4883 47.2335 35.596 46.9901 35.7893C46.7893 35.9486 46.6409 36.1256 46.5448 36.3202C46.4453 36.5106 46.3913 36.7101 46.3828 36.9187C46.3752 37.1197 46.4068 37.3173 46.4776 37.5118L45.4494 36.8347L45.7825 36.5702C45.6237 36.2298 45.5313 35.8855 45.5054 35.5371C45.4838 35.1853 45.5571 34.8347 45.7253 34.4853C45.8902 34.1317 46.1819 33.7888 46.6004 33.4565C47.0702 33.0836 47.5275 32.8703 47.9722 32.8167C48.4136 32.7588 48.8471 32.8532 49.2728 33.1001C49.7028 33.3436 50.1313 33.7344 50.5585 34.2726L53.7468 38.2893L51.7865 39.8454ZM47.7377 43.0592L42.739 36.7617L44.6866 35.2159L45.8734 36.8427L46.0978 36.9674L49.698 41.5031L47.7377 43.0592Z" fill="#022B23"/>
<path d="M58.8859 35.3968C57.7748 36.0241 56.7861 36.1972 55.9198 35.9162C55.0535 35.6351 54.3214 34.9651 53.7235 33.9063L53.3133 33.1798C52.7262 32.1399 52.536 31.1765 52.7428 30.2895C52.9496 29.4026 53.6062 28.6467 54.7125 28.0221C54.9974 27.8612 55.2754 27.7324 55.5464 27.6358C55.8147 27.5343 56.0735 27.4603 56.3226 27.4135C56.5718 27.3668 56.7975 27.3395 56.9997 27.3318L58.1952 29.0332C57.8875 29.0316 57.5694 29.0672 57.241 29.1399C56.9099 29.2078 56.5687 29.341 56.2173 29.5394C55.6666 29.8504 55.3428 30.2086 55.246 30.6139C55.1492 31.0192 55.2429 31.4735 55.5271 31.9768L55.8689 32.5822C56.1585 33.095 56.5116 33.4154 56.9282 33.5433C57.3449 33.6713 57.831 33.5784 58.3865 33.2647C58.7331 33.069 59.0214 32.853 59.2512 32.6168C59.4831 32.3732 59.6873 32.1138 59.8639 31.8388L60.7144 33.7444C60.5426 34.0167 60.3017 34.2999 59.9918 34.5939C59.6818 34.8879 59.3132 35.1555 58.8859 35.3968Z" fill="#022B23"/>
<path d="M68.1744 31.037C66.8052 31.5477 65.6803 31.6211 64.7995 31.2571C63.9169 30.888 63.2574 30.1184 62.8209 28.9485L62.5293 28.1668C62.0986 27.0122 62.0755 26.014 62.4598 25.1722C62.8423 24.3254 63.6185 23.6837 64.7885 23.2473C65.5752 22.9538 66.2797 22.8452 66.9018 22.9216C67.5271 22.991 68.0625 23.2249 68.5079 23.6232C68.9584 24.0197 69.3133 24.5653 69.5725 25.2601L69.6668 25.513C69.7392 25.7072 69.8033 25.9102 69.8591 26.1222C69.9181 26.3272 69.9647 26.5222 69.9988 26.7074L67.8838 27.4964C67.7937 27.1924 67.7026 26.9092 67.6105 26.6468C67.5165 26.3792 67.4295 26.1381 67.3494 25.9235C67.2332 25.6119 67.0874 25.3695 66.9122 25.1962C66.7351 25.0178 66.5234 24.9106 66.2771 24.8744C66.036 24.8363 65.757 24.8764 65.4402 24.9945C64.9702 25.1699 64.673 25.4262 64.5486 25.7636C64.4274 26.094 64.4535 26.4917 64.627 26.9566L64.8843 27.6463L64.9939 27.8934L65.194 28.4299C65.2665 28.624 65.3657 28.7965 65.4918 28.9473C65.623 29.0963 65.7926 29.2076 66.0005 29.2814C66.2117 29.3481 66.472 29.3674 66.7816 29.3392C67.0944 29.304 67.4704 29.2044 67.9098 29.0405C68.3747 28.8671 68.8056 28.6569 69.2023 28.41C69.5972 28.1579 69.9627 27.8819 70.2989 27.5819L70.7648 29.4159C70.4841 29.7243 70.1252 30.0183 69.6882 30.2977C69.2512 30.5771 68.7466 30.8235 68.1744 31.037ZM64.2053 28.8685L63.665 27.4202L68.9834 25.4362L69.5237 26.8846L64.2053 28.8685Z" fill="#022B23"/>
<path d="M79.1955 22.8898L77.5037 22.0271L78.6131 20.5747L78.5903 20.5282L76.8867 20.5006L77.0953 18.6076L78.8678 19.0882L78.8959 19.0514L78.4203 17.3491L80.4551 17.0766L80.4362 18.8451L80.473 18.8732L82.0647 17.942L82.7641 19.7133L81.1197 20.1894L81.1181 20.2392L82.5705 21.3485L81.1735 22.6249L79.9922 21.1987L79.9436 21.2052L79.1955 22.8898Z" fill="#022B23"/>
</svg>
