<svg width="168" height="51" viewBox="0 0 168 51" fill="none" xmlns="http://www.w3.org/2000/svg">
<path d="M49.9704 26.4773C50.0021 25.8226 50.0092 25.1614 49.9895 24.4953C49.9608 23.5378 49.8769 22.5952 49.7443 21.6689C32.1526 23.427 15.2315 32.8026 6.83984 42.4479C7.48211 43.1239 8.16153 43.7638 8.87512 44.3644C18.3728 34.1622 35.612 27.3936 49.9704 26.4773Z" fill="white"/>
<path d="M18.8123 29.2349C13.7512 25.5927 7.4426 22.3325 0.525963 19.9736C0.246187 21.275 0.0675282 22.6125 0 23.9779C5.77487 25.7014 11.3615 28.132 16.1672 31.178C17.0242 30.5116 17.9074 29.8639 18.8123 29.2349Z" fill="white"/>
<path d="M2.29492 35.7783C3.2991 37.9354 4.60019 39.9227 6.14586 41.6888C7.09816 40.2391 8.1877 38.828 9.39619 37.4633C7.11749 36.8001 4.73974 36.2346 2.29492 35.7783Z" fill="white"/>
<path d="M14.2749 32.7141C10.0233 30.6086 5.19952 28.8205 0.0732422 27.5205C0.217847 29.114 0.509819 30.6632 0.937765 32.154C4.54736 32.9381 8.09196 33.9939 11.4344 35.3115C12.3347 34.4218 13.2834 33.555 14.2749 32.7141Z" fill="white"/>
<path d="M49.3864 30.7725C34.0133 31.5396 18.9698 37.7724 9.92285 45.1996C10.7691 45.8384 11.6563 46.425 12.5807 46.9537C22.1443 40.3655 35.6116 36.5311 47.4983 36.1469C48.3223 34.4518 48.9616 32.6512 49.3864 30.7725Z" fill="white"/>
<path d="M14.6162 47.9961C17.9942 49.5366 21.7681 50.3472 25.7303 50.2293C33.6034 49.9949 40.5168 46.1482 44.9306 40.3281C33.7809 40.6975 22.9011 43.7266 14.6162 47.9961Z" fill="white"/>
<path d="M28.4202 9.85737L43.9139 8.89936C39.1617 3.407 32.0679 0.018288 24.2395 0.251553C19.2103 0.401238 14.5747 2.02742 10.7301 4.69761L26.3017 5.66044L8.11098 6.78514C6.1438 8.58332 4.46974 10.6914 3.15818 13.027L21.6516 14.1704L1.99352 15.3862C1.81901 15.792 1.65139 16.2013 1.49805 16.6177C8.5793 19.437 15.3032 23.3707 20.4985 28.101C29.1738 22.4648 39.5814 18.5696 48.7542 17.4328C47.9824 15.0829 46.8693 12.8926 45.4804 10.9124L28.4202 9.85737Z" fill="#C3F53E"/>
<path d="M66.2908 34.2402L71.4148 16.3482H77.9948L83.0908 34.2402H78.6668L74.8728 19.2322H74.5508L70.7148 34.2402H66.2908ZM70.6448 30.0262V26.6242H78.7088V30.0262H70.6448ZM90.1465 34.6322C88.7839 34.6322 87.6405 34.3382 86.7165 33.7502C85.8019 33.1622 85.1159 32.3129 84.6585 31.2022C84.2012 30.0822 83.9725 28.7382 83.9725 27.1702V24.0202C83.9725 21.3882 84.6819 19.3862 86.1005 18.0142C87.5285 16.6422 89.6099 15.9562 92.3445 15.9562C93.1845 15.9562 93.9639 16.0169 94.6825 16.1382C95.4012 16.2502 96.0545 16.3996 96.6425 16.5862C97.2399 16.7729 97.7579 16.9782 98.1965 17.2022L98.5745 20.8982C97.8652 20.5809 97.0719 20.3009 96.1945 20.0582C95.3265 19.8062 94.3279 19.6802 93.1985 19.6802C91.5559 19.6802 90.3519 20.0536 89.5865 20.8002C88.8212 21.5376 88.4385 22.6949 88.4385 24.2722V27.2122C88.4385 28.3882 88.7139 29.2982 89.2645 29.9422C89.8245 30.5862 90.6925 30.9082 91.8685 30.9082C92.3912 30.9082 92.8439 30.8336 93.2265 30.6842C93.6185 30.5256 93.9405 30.3202 94.1925 30.0682C94.4539 29.8162 94.6592 29.5362 94.8085 29.2282V25.8122L95.3825 27.1002L91.9385 27.1142V23.7402H99.0085V31.2582H94.7245C94.5845 31.9022 94.3465 32.4809 94.0105 32.9942C93.6839 33.4982 93.2079 33.8996 92.5825 34.1982C91.9665 34.4876 91.1545 34.6322 90.1465 34.6322ZM94.9065 30.5582H99.0085V34.2402H94.7665L94.9065 30.5582ZM112.153 34.2402L111.803 30.8662C111.747 30.2689 111.63 29.7836 111.453 29.4102C111.275 29.0276 111.005 28.7476 110.641 28.5702C110.277 28.3836 109.791 28.2902 109.185 28.2902L105.139 28.2762V24.9302L109.353 24.9162C110.267 24.9162 110.925 24.7156 111.327 24.3142C111.728 23.9129 111.929 23.3109 111.929 22.5082V22.2282C111.929 21.4349 111.728 20.8422 111.327 20.4502C110.935 20.0489 110.272 19.8482 109.339 19.8482H105.111V16.3482H109.969C112.162 16.3482 113.763 16.7729 114.771 17.6222C115.788 18.4716 116.297 19.6942 116.297 21.2902V21.6542C116.297 22.8582 115.989 23.7962 115.373 24.4682C114.757 25.1402 113.819 25.5229 112.559 25.6162V26.2322L111.663 25.6302C112.745 25.7049 113.585 25.9289 114.183 26.3022C114.78 26.6756 115.219 27.1982 115.499 27.8702C115.788 28.5329 115.998 29.3589 116.129 30.3482L116.647 34.2402H112.153ZM102.101 34.2402V16.3482H106.357V26.1342L106.385 27.7582V34.2402H102.101ZM123.45 34.2402H119.054V16.3482H123.45V34.2402ZM132.338 34.6322C130.975 34.6322 129.832 34.3382 128.908 33.7502C127.993 33.1622 127.307 32.3129 126.85 31.2022C126.393 30.0822 126.164 28.7382 126.164 27.1702V24.0202C126.164 21.3882 126.873 19.3862 128.292 18.0142C129.72 16.6422 131.801 15.9562 134.536 15.9562C135.376 15.9562 136.155 16.0169 136.874 16.1382C137.593 16.2502 138.246 16.3996 138.834 16.5862C139.431 16.7729 139.949 16.9782 140.388 17.2022L140.766 20.8982C140.057 20.5809 139.263 20.3009 138.386 20.0582C137.518 19.8062 136.519 19.6802 135.39 19.6802C133.747 19.6802 132.543 20.0536 131.778 20.8002C131.013 21.5376 130.63 22.6949 130.63 24.2722V27.2122C130.63 28.3882 130.905 29.2982 131.456 29.9422C132.016 30.5862 132.884 30.9082 134.06 30.9082C134.583 30.9082 135.035 30.8336 135.418 30.6842C135.81 30.5256 136.132 30.3202 136.384 30.0682C136.645 29.8162 136.851 29.5362 137 29.2282V25.8122L137.574 27.1002L134.13 27.1142V23.7402H141.2V31.2582H136.916C136.776 31.9022 136.538 32.4809 136.202 32.9942C135.875 33.4982 135.399 33.8996 134.774 34.1982C134.158 34.4876 133.346 34.6322 132.338 34.6322ZM137.098 30.5582H141.2V34.2402H136.958L137.098 30.5582ZM151.476 34.6742C148.872 34.6742 146.917 34.0209 145.61 32.7142C144.313 31.4076 143.664 29.5269 143.664 27.0722V23.6702C143.664 21.2062 144.317 19.3069 145.624 17.9722C146.94 16.6282 148.891 15.9562 151.476 15.9562C154.061 15.9562 156.007 16.6282 157.314 17.9722C158.63 19.3069 159.288 21.2062 159.288 23.6702V27.0722C159.288 29.5269 158.635 31.4076 157.328 32.7142C156.021 34.0209 154.071 34.6742 151.476 34.6742ZM151.476 31.0622C152.605 31.0622 153.445 30.7309 153.996 30.0682C154.547 29.4056 154.822 28.4769 154.822 27.2822V23.4462C154.822 22.1956 154.547 21.2342 153.996 20.5622C153.445 19.8902 152.605 19.5542 151.476 19.5542C150.347 19.5542 149.507 19.8902 148.956 20.5622C148.405 21.2342 148.13 22.1956 148.13 23.4462V27.2822C148.13 28.4769 148.405 29.4056 148.956 30.0682C149.507 30.7309 150.347 31.0622 151.476 31.0622Z" fill="white"/>
<path d="M163.145 34.6182C162.342 34.6182 161.749 34.4129 161.367 34.0022C160.993 33.5916 160.807 33.0176 160.807 32.2802V32.1262C160.807 31.3982 160.993 30.8242 161.367 30.4042C161.749 29.9842 162.342 29.7742 163.145 29.7742C163.929 29.7742 164.512 29.9842 164.895 30.4042C165.277 30.8242 165.469 31.3982 165.469 32.1262V32.2802C165.469 33.0176 165.277 33.5916 164.895 34.0022C164.512 34.4129 163.929 34.6182 163.145 34.6182Z" fill="#C3F53E"/>
</svg>
