<svg width="66" height="42" viewBox="0 0 66 42" fill="none" xmlns="http://www.w3.org/2000/svg">
<path d="M63.4214 5.0198C58.7158 16.0614 50.8724 24.9956 41.1478 31.5356C36.4394 34.7018 31.2928 37.2043 25.9625 39.0047C20.5396 40.8369 14.3083 42.4185 8.56836 41.8891C6.68712 41.7156 5.88363 38.4693 8.08114 38.1445C13.3651 37.363 18.5594 37.0167 23.7258 35.4766C29.0875 33.8787 34.1884 31.5045 38.9603 28.5059C48.39 22.5806 56.3494 13.9837 61.9348 4.11592C62.5103 3.09933 63.8609 3.98912 63.4214 5.0198Z" fill="white"/>
<path d="M56.0974 28.0251C58.1197 19.0782 60.4953 10.2159 62.4919 1.25719C63.4821 1.85706 64.4715 2.45693 65.4616 3.0568C61.7746 6.4254 57.7586 9.41584 53.5915 12.106C49.9971 14.4261 45.2687 18.1195 40.935 18.3419C39.7176 18.405 39.1741 16.7596 39.9676 15.9106C41.4443 14.3312 43.4673 13.5964 45.3222 12.5946C47.3601 11.495 49.3603 10.3175 51.3178 9.07105C55.3944 6.47508 59.2046 3.52542 62.9485 0.440805C64.2435 -0.626204 66.4525 0.305113 65.9182 2.24041C63.4757 11.0835 60.9555 19.931 57.6717 28.4767C57.2899 29.471 55.8503 29.1158 56.0974 28.0251Z" fill="white"/>
<path d="M0.000158874 39.9995C0.000158919 38.9614 0.877023 37.9678 1.90633 38.0152C2.93919 38.0634 3.8125 38.8872 3.8125 39.9995C3.8125 41.0376 2.93563 42.0312 1.90633 41.9837C0.873461 41.9355 0.000158825 41.1117 0.000158874 39.9995Z" fill="white"/>
</svg>
