<svg width="30" height="31" viewBox="0 0 30 31" fill="none" xmlns="http://www.w3.org/2000/svg">
<g clip-path="url(#clip0_309_13897)">
<path d="M15.0017 21.0219C17.9603 21.0219 20.3588 18.6234 20.3588 15.6648C20.3588 12.7061 17.9603 10.3076 15.0017 10.3076C12.043 10.3076 9.64453 12.7061 9.64453 15.6648C9.64453 18.6234 12.043 21.0219 15.0017 21.0219Z" stroke="#022B23" stroke-width="1.5" stroke-linecap="round" stroke-linejoin="round"/>
<path d="M15 1.73633V6.02204" stroke="#022B23" stroke-width="1.5" stroke-linecap="round" stroke-linejoin="round"/>
<path d="M5.14453 5.80762L8.18739 8.85047" stroke="#022B23" stroke-width="1.5" stroke-linecap="round" stroke-linejoin="round"/>
<path d="M1.07227 15.665H5.35798" stroke="#022B23" stroke-width="1.5" stroke-linecap="round" stroke-linejoin="round"/>
<path d="M5.14453 25.5219L8.18739 22.479" stroke="#022B23" stroke-width="1.5" stroke-linecap="round" stroke-linejoin="round"/>
<path d="M15 29.5933V25.3076" stroke="#022B23" stroke-width="1.5" stroke-linecap="round" stroke-linejoin="round"/>
<path d="M24.8593 25.5219L21.8164 22.479" stroke="#022B23" stroke-width="1.5" stroke-linecap="round" stroke-linejoin="round"/>
<path d="M28.9302 15.665H24.6445" stroke="#022B23" stroke-width="1.5" stroke-linecap="round" stroke-linejoin="round"/>
<path d="M24.8593 5.80762L21.8164 8.85047" stroke="#022B23" stroke-width="1.5" stroke-linecap="round" stroke-linejoin="round"/>
</g>
<defs>
<clipPath id="clip0_309_13897">
<rect width="30" height="30" fill="white" transform="translate(0 0.665039)"/>
</clipPath>
</defs>
</svg>
