<svg width="30" height="31" viewBox="0 0 30 31" fill="none" xmlns="http://www.w3.org/2000/svg">
<g clip-path="url(#clip0_234_36649)">
<path d="M28.8271 15.7168C28.1799 15.7168 27.6553 15.1922 27.6553 14.545C27.6553 8.08404 22.3989 2.82762 15.9379 2.82762C15.2908 2.82762 14.7662 2.30303 14.7662 1.65588C14.7662 1.00872 15.2908 0.484137 15.9379 0.484137C23.4959 0.328003 30.1551 6.98712 29.9987 14.5451C29.9988 15.1922 29.4742 15.7168 28.8271 15.7168ZM20.6249 14.545C20.6249 11.9606 18.5223 9.85806 15.9379 9.85806C15.2908 9.85806 14.7662 10.3826 14.7662 11.0298C14.7662 11.6769 15.2908 12.2015 15.9379 12.2015C17.2301 12.2015 18.2814 13.2528 18.2814 14.545C18.2814 15.1922 18.806 15.7168 19.4532 15.7168C20.1003 15.7168 20.6249 15.1922 20.6249 14.545ZM25.3119 14.545C25.3119 9.37624 21.1068 5.1711 15.9379 5.1711C15.2908 5.1711 14.7662 5.69568 14.7662 6.34284C14.7662 6.98999 15.2908 7.51458 15.9379 7.51458C19.8145 7.51458 22.9684 10.6684 22.9684 14.545C22.9684 15.1922 23.493 15.7168 24.1401 15.7168C24.7873 15.7168 25.3119 15.1922 25.3119 14.545ZM20.6504 30.481C20.9521 30.4742 21.2396 30.3514 21.453 30.1381L25.6712 25.9198C26.1288 25.4622 26.1288 24.7203 25.6712 24.2627L19.2999 17.8914C18.8423 17.4338 18.1004 17.4338 17.6428 17.8914L16.0537 19.4805C14.4641 18.7164 11.7376 15.9798 10.9983 14.3932L12.5715 12.82C13.0253 12.3837 13.0253 11.5993 12.5715 11.163L6.16175 4.7532C5.70413 4.29557 4.96224 4.29557 4.50468 4.7532L0.345001 8.91287C0.130104 9.12777 0.00707141 9.41777 0.00197434 9.72167C-0.0161876 18.31 11.6309 30.3741 20.5985 30.4814C20.6234 30.4814 20.6409 30.4811 20.6504 30.481ZM5.33322 7.23887L10.0859 11.9915L8.78147 13.2959C8.48596 13.5914 8.37019 14.022 8.4777 14.4259C9.09292 16.9001 13.5887 21.3898 16.0146 22.0048C16.4188 22.1134 16.8507 21.9979 17.1468 21.7017L18.4714 20.3771L23.1856 25.0913L20.1625 28.1143C13.664 27.7337 3.21289 18.6995 2.37264 10.1994L5.33322 7.23887Z" fill="#022B23"/>
</g>
<defs>
<clipPath id="clip0_234_36649">
<rect width="30" height="30" fill="white" transform="translate(0.00195312 0.481445)"/>
</clipPath>
</defs>
</svg>
