<svg width="26" height="26" viewBox="0 0 26 26" fill="none" xmlns="http://www.w3.org/2000/svg">
<path d="M18.6773 3.85435C17.5966 2.96951 16.3331 2.33554 14.9777 1.99815C13.6224 1.66076 12.2091 1.62837 10.8398 1.9033C9.07906 2.26428 7.45923 3.12377 6.17323 4.37939C4.88723 5.63501 3.98927 7.23384 3.58631 8.98541C3.18336 10.737 3.29238 12.5675 3.90042 14.2588C4.50845 15.9502 5.58985 17.4311 7.0158 18.5252C8.64385 19.7168 10.03 21.2076 11.1002 22.9179L11.8293 24.1304C11.922 24.2844 12.0528 24.4118 12.2093 24.5003C12.3657 24.5888 12.5423 24.6353 12.7221 24.6353C12.9018 24.6353 13.0784 24.5888 13.2348 24.5003C13.3913 24.4118 13.5222 24.2844 13.6148 24.1304L14.3137 22.9658C15.2456 21.3277 16.5162 19.9072 18.0408 18.7991C19.2362 17.9767 20.2242 16.8877 20.9267 15.618C21.6292 14.3484 22.027 12.9329 22.0889 11.4832C22.1507 10.0335 21.8748 8.58921 21.2829 7.26438C20.691 5.93955 19.7994 4.77039 18.6783 3.84914L18.6773 3.85435ZM12.721 15.2616C11.8969 15.2616 11.0913 15.0173 10.4061 14.5594C9.72093 14.1016 9.18688 13.4508 8.87151 12.6895C8.55615 11.9281 8.47363 11.0903 8.6344 10.2821C8.79518 9.47384 9.19201 8.73141 9.77473 8.14869C10.3575 7.56597 11.0999 7.16914 11.9081 7.00837C12.7164 6.84759 13.5542 6.93011 14.3155 7.24547C15.0769 7.56084 15.7276 8.09489 16.1855 8.78009C16.6433 9.4653 16.8877 10.2709 16.8877 11.095C16.8877 12.2 16.4487 13.2598 15.6673 14.0412C14.8859 14.8227 13.8261 15.2616 12.721 15.2616Z" fill="white"/>
</svg>
