<svg width="25" height="25" viewBox="0 0 25 25" fill="none" xmlns="http://www.w3.org/2000/svg">
<g clip-path="url(#clip0_361_17)">
<path d="M12.2681 16.9645C16.7061 16.9645 20.3039 13.3668 20.3039 8.92878C20.3039 4.49078 16.7061 0.893066 12.2681 0.893066C7.83013 0.893066 4.23242 4.49078 4.23242 8.92878C4.23242 13.3668 7.83013 16.9645 12.2681 16.9645Z" stroke="#022B23" stroke-width="1.5" stroke-linecap="round" stroke-linejoin="round"/>
<path d="M12.2687 12.5003C14.2411 12.5003 15.8401 10.9013 15.8401 8.92885C15.8401 6.9564 14.2411 5.35742 12.2687 5.35742C10.2962 5.35742 8.69727 6.9564 8.69727 8.92885C8.69727 10.9013 10.2962 12.5003 12.2687 12.5003Z" stroke="#022B23" stroke-width="1.5" stroke-linecap="round" stroke-linejoin="round"/>
<path d="M10.7146 16.8218L9.14312 23.429C9.11203 23.5546 9.05453 23.6721 8.97448 23.7737C8.89442 23.8753 8.79364 23.9587 8.67884 24.0183C8.55767 24.0709 8.427 24.098 8.29491 24.098C8.16282 24.098 8.03215 24.0709 7.91098 24.0183L1.98241 21.429C1.85805 21.3702 1.74863 21.284 1.66235 21.1769C1.57608 21.0697 1.51519 20.9445 1.48426 20.8104C1.45333 20.6764 1.45316 20.5371 1.48377 20.403C1.51438 20.2689 1.57496 20.1435 1.66098 20.0361L6.25027 14.2861" stroke="#022B23" stroke-width="1.5" stroke-linecap="round" stroke-linejoin="round"/>
<path d="M14.2852 16.7325L15.8923 23.4289C15.9243 23.5566 15.9841 23.6757 16.0674 23.7775C16.1508 23.8794 16.2556 23.9616 16.3744 24.0182C16.4923 24.0715 16.6201 24.099 16.7494 24.099C16.8788 24.099 17.0066 24.0715 17.1244 24.0182L23.0173 21.4289C23.1435 21.3708 23.2545 21.2841 23.3413 21.1756C23.4281 21.0671 23.4883 20.9398 23.5173 20.8039C23.5512 20.671 23.5526 20.5319 23.5215 20.3982C23.4905 20.2646 23.4278 20.1404 23.3387 20.0361L18.553 13.9468" stroke="#022B23" stroke-width="1.5" stroke-linecap="round" stroke-linejoin="round"/>
</g>
<defs>
<clipPath id="clip0_361_17">
<rect width="25" height="25" fill="white"/>
</clipPath>
</defs>
</svg>
