<svg width="30" height="31" viewBox="0 0 30 31" fill="none" xmlns="http://www.w3.org/2000/svg">
<g clip-path="url(#clip0_234_36783)">
<path d="M28.9284 29.0953H27.857C26.7204 29.0953 25.6303 28.6438 24.8265 27.8401C24.0228 27.0364 23.5713 25.9463 23.5713 24.8096C23.5713 25.9463 23.1198 27.0364 22.316 27.8401C21.5123 28.6438 20.4222 29.0953 19.2856 29.0953C18.1489 29.0953 17.0588 28.6438 16.2551 27.8401C15.4514 27.0364 14.9999 25.9463 14.9999 24.8096C14.9999 25.9463 14.5483 27.0364 13.7446 27.8401C12.9409 28.6438 11.8508 29.0953 10.7141 29.0953C9.5775 29.0953 8.48742 28.6438 7.68369 27.8401C6.87996 27.0364 6.42843 25.9463 6.42843 24.8096C6.42843 25.9463 5.9769 27.0364 5.17318 27.8401C4.36945 28.6438 3.27936 29.0953 2.14272 29.0953H1.07129" stroke="#022B23" stroke-width="1.5" stroke-linecap="round" stroke-linejoin="round"/>
<path d="M21.4283 20.5239C20.3246 19.1822 18.9375 18.1015 17.3666 17.3595C15.7957 16.6176 14.0799 16.2328 12.3426 16.2328C10.6052 16.2328 8.88945 16.6176 7.31851 17.3595C5.74757 18.1015 4.36046 19.1822 3.25684 20.5239" stroke="#022B23" stroke-width="1.5" stroke-linecap="round" stroke-linejoin="round"/>
<path d="M13.9287 16.3453C14.0573 11.5024 15.5359 7.08814 18.7501 5.50242" stroke="#022B23" stroke-width="1.5" stroke-linecap="round" stroke-linejoin="round"/>
<path d="M12.3428 1.43106C13.7318 1.15754 15.1729 1.42734 16.369 2.18483C17.565 2.94233 18.4249 4.1298 18.7713 5.50249" stroke="#022B23" stroke-width="1.5" stroke-linecap="round" stroke-linejoin="round"/>
<path d="M26.5929 6.29535C25.6066 5.2304 24.2655 4.56218 22.8213 4.41619C21.3772 4.2702 19.9294 4.65648 18.75 5.50249" stroke="#022B23" stroke-width="1.5" stroke-linecap="round" stroke-linejoin="round"/>
<path d="M10.8857 7.79535C11.7254 6.55829 12.97 5.65258 14.4054 5.2341C15.8407 4.81562 17.3771 4.91052 18.75 5.50249C20.1272 5.83929 21.3195 6.69815 22.0752 7.89767C22.8309 9.0972 23.0908 10.5435 22.8 11.9311" stroke="#022B23" stroke-width="1.5" stroke-linecap="round" stroke-linejoin="round"/>
</g>
<defs>
<clipPath id="clip0_234_36783">
<rect width="30" height="30" fill="white" transform="translate(0 0.209633)"/>
</clipPath>
</defs>
</svg>
