<svg width="21" height="20" viewBox="0 0 21 20" fill="none" xmlns="http://www.w3.org/2000/svg">
<g clip-path="url(#clip0_234_26765)">
<path d="M10.793 20C16.3063 20 20.793 15.5133 20.793 10C20.793 4.48668 16.3063 0 10.793 0C5.27959 0 0.792969 4.48668 0.792969 10C0.792969 15.5133 5.27965 20 10.793 20ZM10.793 1.33331C15.5729 1.33331 19.4597 5.21996 19.4597 10C19.4597 14.78 15.573 18.6667 10.793 18.6667C6.01293 18.6667 2.12628 14.78 2.12628 10C2.12628 5.21996 6.01299 1.33331 10.793 1.33331Z" fill="#C3F53E"/>
<path d="M13.7083 13.1867C13.8317 13.2866 13.9783 13.3333 14.125 13.3333C14.3217 13.3333 14.515 13.2467 14.645 13.0833C14.875 12.7967 14.8283 12.3767 14.5416 12.1467L11.4583 9.67999V4.66666C11.4583 4.29998 11.1583 4 10.7917 4C10.425 4 10.125 4.29998 10.125 4.66666V10C10.125 10.2034 10.2184 10.3933 10.375 10.52L13.7083 13.1867Z" fill="#C3F53E"/>
</g>
<defs>
<clipPath id="clip0_234_26765">
<rect width="20" height="20" fill="white" transform="translate(0.792969)"/>
</clipPath>
</defs>
</svg>
