<svg width="40" height="41" viewBox="0 0 40 41" fill="none" xmlns="http://www.w3.org/2000/svg">
<g clip-path="url(#clip0_234_24638)">
<path d="M21.3411 19.948C20.9173 20.132 20.4603 20.227 19.9983 20.227C19.5363 20.227 19.0792 20.132 18.6554 19.948L2.36969 12.4051C2.10524 12.2717 1.883 12.0676 1.72772 11.8153C1.57245 11.5631 1.49023 11.2727 1.49023 10.9766C1.49023 10.6804 1.57245 10.39 1.72772 10.1378C1.883 9.88554 2.10524 9.68137 2.36969 9.54798L18.6554 1.94798C19.0792 1.76396 19.5363 1.66901 19.9983 1.66901C20.4603 1.66901 20.9173 1.76396 21.3411 1.94798L37.6268 9.49084C37.8913 9.62422 38.1135 9.8284 38.2688 10.0806C38.4241 10.3328 38.5063 10.6232 38.5063 10.9194C38.5063 11.2156 38.4241 11.506 38.2688 11.7582C38.1135 12.0104 37.8913 12.2146 37.6268 12.348L21.3411 19.948Z" stroke="#C3F53E" stroke-width="1.5" stroke-linecap="round" stroke-linejoin="round"/>
<path d="M38.5706 21.2337L21.142 29.2623C20.7698 29.4321 20.3654 29.5199 19.9563 29.5199C19.5472 29.5199 19.1428 29.4321 18.7706 29.2623L1.42773 21.2337" stroke="#C3F53E" stroke-width="1.5" stroke-linecap="round" stroke-linejoin="round"/>
<path d="M38.5706 30.5194L21.142 38.548C20.7698 38.7178 20.3654 38.8056 19.9563 38.8056C19.5472 38.8056 19.1428 38.7178 18.7706 38.548L1.42773 30.5194" stroke="#C3F53E" stroke-width="1.5" stroke-linecap="round" stroke-linejoin="round"/>
</g>
<defs>
<clipPath id="clip0_234_24638">
<rect width="40" height="40" fill="white" transform="translate(0 0.233704)"/>
</clipPath>
</defs>
</svg>
