<svg width="30" height="31" viewBox="0 0 30 31" fill="none" xmlns="http://www.w3.org/2000/svg">
<g clip-path="url(#clip0_234_26449)">
<path d="M28.9294 29.3809H27.858C26.7213 29.3809 25.6312 28.9294 24.8275 28.1257C24.0238 27.3219 23.5723 26.2319 23.5723 25.0952C23.5723 26.2319 23.1207 27.3219 22.317 28.1257C21.5133 28.9294 20.4232 29.3809 19.2866 29.3809C18.1499 29.3809 17.0598 28.9294 16.2561 28.1257C15.4524 27.3219 15.0008 26.2319 15.0008 25.0952C15.0008 26.2319 14.5493 27.3219 13.7456 28.1257C12.9419 28.9294 11.8518 29.3809 10.7151 29.3809C9.57848 29.3809 8.48839 28.9294 7.68466 28.1257C6.88094 27.3219 6.42941 26.2319 6.42941 25.0952C6.42941 26.2319 5.97788 27.3219 5.17415 28.1257C4.37042 28.9294 3.28034 29.3809 2.14369 29.3809H1.07227" stroke="#022B23" stroke-width="1.5" stroke-linecap="round" stroke-linejoin="round"/>
<path d="M21.4292 20.8092C20.3256 19.4674 18.9385 18.3867 17.3676 17.6448C15.7966 16.9029 14.0809 16.5181 12.3435 16.5181C10.6062 16.5181 8.89042 16.9029 7.31949 17.6448C5.74855 18.3867 4.36144 19.4674 3.25781 20.8092" stroke="#022B23" stroke-width="1.5" stroke-linecap="round" stroke-linejoin="round"/>
<path d="M13.9297 16.6305C14.0583 11.7876 15.5368 7.37331 18.7511 5.7876" stroke="#022B23" stroke-width="1.5" stroke-linecap="round" stroke-linejoin="round"/>
<path d="M12.3438 1.71648C13.7328 1.44296 15.1739 1.71276 16.3699 2.47025C17.566 3.22775 18.4259 4.41522 18.7723 5.78791" stroke="#022B23" stroke-width="1.5" stroke-linecap="round" stroke-linejoin="round"/>
<path d="M26.5948 6.58077C25.6085 5.51582 24.2674 4.8476 22.8233 4.70161C21.3791 4.55562 19.9314 4.9419 18.752 5.78791" stroke="#022B23" stroke-width="1.5" stroke-linecap="round" stroke-linejoin="round"/>
<path d="M10.8867 8.0809C11.7264 6.84384 12.971 5.93814 14.4064 5.51965C15.8417 5.10117 17.3781 5.19608 18.751 5.78804C20.1281 6.12485 21.3205 6.9837 22.0762 8.18323C22.8319 9.38275 23.0918 10.829 22.801 12.2166" stroke="#022B23" stroke-width="1.5" stroke-linecap="round" stroke-linejoin="round"/>
</g>
<defs>
<clipPath id="clip0_234_26449">
<rect width="30" height="30" fill="white" transform="translate(0 0.495117)"/>
</clipPath>
</defs>
</svg>
