<svg width="30" height="31" viewBox="0 0 30 31" fill="none" xmlns="http://www.w3.org/2000/svg">
<g clip-path="url(#clip0_234_25824)">
<path d="M28.9284 29.2156H27.857C26.7204 29.2156 25.6303 28.7641 24.8265 27.9604C24.0228 27.1567 23.5713 26.0666 23.5713 24.9299C23.5713 26.0666 23.1198 27.1567 22.316 27.9604C21.5123 28.7641 20.4222 29.2156 19.2856 29.2156C18.1489 29.2156 17.0588 28.7641 16.2551 27.9604C15.4514 27.1567 14.9999 26.0666 14.9999 24.9299C14.9999 26.0666 14.5483 27.1567 13.7446 27.9604C12.9409 28.7641 11.8508 29.2156 10.7141 29.2156C9.5775 29.2156 8.48742 28.7641 7.68369 27.9604C6.87996 27.1567 6.42843 26.0666 6.42843 24.9299C6.42843 26.0666 5.9769 27.1567 5.17318 27.9604C4.36945 28.7641 3.27936 29.2156 2.14272 29.2156H1.07129" stroke="#022B23" stroke-width="1.5" stroke-linecap="round" stroke-linejoin="round"/>
<path d="M21.4283 20.6444C20.3246 19.3026 18.9375 18.222 17.3666 17.48C15.7957 16.7381 14.0799 16.3533 12.3426 16.3533C10.6052 16.3533 8.88945 16.7381 7.31851 17.48C5.74757 18.222 4.36046 19.3026 3.25684 20.6444" stroke="#022B23" stroke-width="1.5" stroke-linecap="round" stroke-linejoin="round"/>
<path d="M13.9287 16.4657C14.0573 11.6228 15.5359 7.20852 18.7501 5.6228" stroke="#022B23" stroke-width="1.5" stroke-linecap="round" stroke-linejoin="round"/>
<path d="M12.3428 1.55144C13.7318 1.27792 15.1729 1.54772 16.369 2.30521C17.565 3.06271 18.4249 4.25018 18.7713 5.62287" stroke="#022B23" stroke-width="1.5" stroke-linecap="round" stroke-linejoin="round"/>
<path d="M26.5929 6.41573C25.6066 5.35078 24.2655 4.68256 22.8213 4.53657C21.3772 4.39058 19.9294 4.77686 18.75 5.62287" stroke="#022B23" stroke-width="1.5" stroke-linecap="round" stroke-linejoin="round"/>
<path d="M10.8857 7.91562C11.7254 6.67856 12.97 5.77285 14.4054 5.35437C15.8407 4.93589 17.3771 5.03079 18.75 5.62276C20.1272 5.95956 21.3195 6.81842 22.0752 8.01794C22.8309 9.21747 23.0908 10.6637 22.8 12.0513" stroke="#022B23" stroke-width="1.5" stroke-linecap="round" stroke-linejoin="round"/>
</g>
<defs>
<clipPath id="clip0_234_25824">
<rect width="30" height="30" fill="white" transform="translate(0 0.330078)"/>
</clipPath>
</defs>
</svg>
