<svg width="30" height="30" viewBox="0 0 30 30" fill="none" xmlns="http://www.w3.org/2000/svg">
<path fill-rule="evenodd" clip-rule="evenodd" d="M2.40942 4.72483L11.4255 13.7448C13.3919 15.7075 16.6064 15.7092 18.5744 13.7448L27.5905 4.72483C27.6813 4.63403 27.6681 4.4845 27.5627 4.41104C26.6432 3.76971 25.5243 3.3895 24.3191 3.3895H5.68094C4.47565 3.3895 3.35678 3.76977 2.43719 4.41104C2.33185 4.4845 2.31862 4.63403 2.40942 4.72483ZM0 9.07037C0 8.12262 0.234984 7.22713 0.648895 6.44005C0.713621 6.31692 0.877687 6.29202 0.976048 6.39038L9.878 15.2923C12.697 18.1154 17.3013 18.117 20.122 15.2923L29.024 6.39038C29.1223 6.29202 29.2864 6.31692 29.3511 6.44005C29.765 7.22713 30 8.12268 30 9.07037V20.9295C30 24.0644 27.45 26.6105 24.3191 26.6105H5.68094C2.55008 26.6105 0 24.0644 0 20.9295V9.07037Z" fill="#022B23"/>
</svg>
