<svg width="30" height="31" viewBox="0 0 30 31" fill="none" xmlns="http://www.w3.org/2000/svg">
<g clip-path="url(#clip0_234_25839)">
<path d="M14.9997 20.6874C17.9584 20.6874 20.3569 18.289 20.3569 15.3303C20.3569 12.3716 17.9584 9.97314 14.9997 9.97314C12.0411 9.97314 9.64258 12.3716 9.64258 15.3303C9.64258 18.289 12.0411 20.6874 14.9997 20.6874Z" stroke="#022B23" stroke-width="1.5" stroke-linecap="round" stroke-linejoin="round"/>
<path d="M15 1.40161V5.68733" stroke="#022B23" stroke-width="1.5" stroke-linecap="round" stroke-linejoin="round"/>
<path d="M5.14258 5.47314L8.18543 8.516" stroke="#022B23" stroke-width="1.5" stroke-linecap="round" stroke-linejoin="round"/>
<path d="M1.07129 15.3301H5.357" stroke="#022B23" stroke-width="1.5" stroke-linecap="round" stroke-linejoin="round"/>
<path d="M5.14258 25.1874L8.18543 22.1445" stroke="#022B23" stroke-width="1.5" stroke-linecap="round" stroke-linejoin="round"/>
<path d="M15 29.2589V24.9731" stroke="#022B23" stroke-width="1.5" stroke-linecap="round" stroke-linejoin="round"/>
<path d="M24.8573 25.1874L21.8145 22.1445" stroke="#022B23" stroke-width="1.5" stroke-linecap="round" stroke-linejoin="round"/>
<path d="M28.9283 15.3301H24.6426" stroke="#022B23" stroke-width="1.5" stroke-linecap="round" stroke-linejoin="round"/>
<path d="M24.8573 5.47314L21.8145 8.516" stroke="#022B23" stroke-width="1.5" stroke-linecap="round" stroke-linejoin="round"/>
</g>
<defs>
<clipPath id="clip0_234_25839">
<rect width="30" height="30" fill="white" transform="translate(0 0.330078)"/>
</clipPath>
</defs>
</svg>
