<svg width="30" height="30" viewBox="0 0 30 30" fill="none" xmlns="http://www.w3.org/2000/svg">
<path d="M22.1494 3.81091C20.8527 2.74911 19.3364 1.98834 17.71 1.58348C16.0836 1.17861 14.3877 1.13974 12.7444 1.46966C10.6316 1.90283 8.6878 2.93422 7.1446 4.44097C5.6014 5.94771 4.52385 7.8663 4.0403 9.96818C3.55675 12.0701 3.68758 14.2666 4.41722 16.2963C5.14685 18.3259 6.44453 20.103 8.15568 21.4159C10.1093 22.8458 11.7727 24.6348 13.0569 26.6872L13.9319 28.1422C14.0431 28.327 14.2001 28.4799 14.3878 28.5861C14.5755 28.6922 14.7875 28.748 15.0032 28.748C15.2188 28.748 15.4308 28.6922 15.6185 28.5861C15.8062 28.4799 15.9633 28.327 16.0744 28.1422L16.9132 26.7447C18.0315 24.7789 19.5562 23.0743 21.3857 21.7447C22.8202 20.7577 24.0057 19.4509 24.8487 17.9273C25.6917 16.4038 26.1692 14.7051 26.2433 12.9655C26.3175 11.2258 25.9864 9.49274 25.2762 7.90295C24.5659 6.31315 23.496 4.91016 22.1507 3.80466L22.1494 3.81091ZM15.0019 17.4997C14.013 17.4997 13.0463 17.2064 12.2241 16.657C11.4018 16.1076 10.761 15.3267 10.3825 14.4131C10.0041 13.4994 9.90508 12.4941 10.098 11.5242C10.2909 10.5543 10.7671 9.66339 11.4664 8.96412C12.1657 8.26486 13.0566 7.78866 14.0265 7.59573C14.9964 7.40281 16.0017 7.50182 16.9153 7.88026C17.829 8.2587 18.6099 8.89956 19.1593 9.72181C19.7087 10.5441 20.0019 11.5108 20.0019 12.4997C20.0019 13.8257 19.4751 15.0975 18.5375 16.0352C17.5998 16.9729 16.328 17.4997 15.0019 17.4997Z" fill="#022B23"/>
</svg>
