<svg width="21" height="20" viewBox="0 0 21 20" fill="none" xmlns="http://www.w3.org/2000/svg">
<g clip-path="url(#clip0_234_26754)">
<path d="M20.7649 11.1247C20.7649 11.1246 20.7648 11.1246 20.7648 11.1245L16.9887 1.64308C16.9086 1.44162 16.6802 1.34327 16.4788 1.42341C16.4786 1.42346 16.4785 1.42351 16.4783 1.42361L1.15927 7.52352C1.0968 7.55051 1.04262 7.5936 1.00223 7.64837C0.874827 7.71457 0.794343 7.8456 0.792969 7.98915V18.1969C0.792969 18.4137 0.968758 18.5895 1.18557 18.5895H17.675C17.8918 18.5895 18.0676 18.4137 18.0676 18.1969V12.6219L20.5457 11.6349C20.7471 11.5545 20.8452 11.3261 20.7649 11.1247ZM17.2824 17.8043H1.57818V8.38176H17.2824V17.8043ZM7.34359 7.59851L13.9174 4.97905C14.5041 5.59573 15.317 5.94623 16.1682 5.94957L16.8238 7.59851H7.34359ZM18.0676 11.7786V7.98915C18.0676 7.77233 17.8918 7.59655 17.675 7.59655H17.6687L16.8368 5.5071C16.8276 5.48968 16.8168 5.47309 16.8046 5.45763C16.7625 5.26854 16.5874 5.13952 16.3943 5.15532C15.6023 5.22751 14.8276 4.8939 14.3359 4.26882C14.2135 4.11782 13.9985 4.08027 13.8322 4.18088C13.8135 4.18309 13.795 4.18652 13.7768 4.19109L5.75118 7.38689C5.65406 7.42498 5.57637 7.5005 5.53564 7.59655H3.09835L16.4045 2.29834L19.8905 11.0515L18.0676 11.7786Z" fill="#C3F53E"/>
<path d="M2.6436 15.1538C3.40584 15.3791 4.00231 15.9749 4.22855 16.7368C4.27816 16.9031 4.43113 17.0171 4.60466 17.0171C4.62503 17.0159 4.64525 17.0128 4.66513 17.0081C4.68274 17.0131 4.70075 17.0168 4.71891 17.0191H14.1414C14.1576 17.017 14.1736 17.0137 14.1893 17.0093C14.3855 17.057 14.5832 16.9367 14.6309 16.7405C14.6311 16.7398 14.6313 16.7391 14.6314 16.7384C14.8571 15.9757 15.4536 15.3791 16.2164 15.1534C16.4013 15.0969 16.5163 14.9126 16.4857 14.7216C16.4909 14.7025 16.4947 14.6831 16.4971 14.6635V11.5226C16.4948 11.5029 16.4908 11.4835 16.4853 11.4645C16.5161 11.2735 16.4011 11.089 16.216 11.0327C15.4532 10.8071 14.8568 10.2102 14.6318 9.44731C14.575 9.26107 14.3888 9.14584 14.1968 9.17799C14.1786 9.17293 14.1601 9.16925 14.1414 9.16699H4.71891C4.69914 9.16935 4.67955 9.17327 4.66041 9.17877C4.46946 9.14834 4.28523 9.26323 4.22855 9.4481C4.00275 10.2107 3.40624 10.8071 2.6436 11.0327C2.45864 11.0892 2.3437 11.2735 2.37427 11.4645C2.36917 11.4836 2.36549 11.503 2.36328 11.5226V14.6635C2.36554 14.6819 2.36922 14.7002 2.37427 14.718C2.34208 14.9103 2.45726 15.0967 2.6436 15.1538ZM3.14849 11.682C3.93684 11.3654 4.56167 10.7406 4.87831 9.9522H13.9816C14.2984 10.7406 14.9234 11.3654 15.7119 11.682V14.5041C14.9238 14.821 14.299 15.4458 13.982 16.2339H4.87831C4.56133 15.4458 3.9366 14.821 3.14849 14.5041V11.682Z" fill="#C3F53E"/>
<path d="M9.42985 15.4486C10.7308 15.4486 11.7855 14.3939 11.7855 13.0929C11.7855 11.7919 10.7308 10.7373 9.42985 10.7373C8.12885 10.7373 7.07422 11.7919 7.07422 13.0929C7.07549 14.3934 8.12939 15.4473 9.42985 15.4486ZM9.42985 11.5225C10.2972 11.5225 11.0003 12.2256 11.0003 13.0929C11.0003 13.9603 10.2972 14.6634 9.42985 14.6634C8.56254 14.6634 7.85943 13.9603 7.85943 13.0929C7.85943 12.2256 8.56254 11.5225 9.42985 11.5225Z" fill="#C3F53E"/>
<path d="M5.11137 13.6822C5.43659 13.6822 5.70028 13.4185 5.70028 13.0933C5.70028 12.7681 5.43659 12.5044 5.11137 12.5044C4.78614 12.5044 4.52246 12.7681 4.52246 13.0933C4.52246 13.4186 4.78614 13.6822 5.11137 13.6822ZM5.11137 12.897C5.21978 12.897 5.30767 12.9849 5.30767 13.0933C5.30767 13.2017 5.21978 13.2896 5.11137 13.2896C5.00296 13.2896 4.91507 13.2017 4.91507 13.0933C4.91507 12.9849 5.00296 12.897 5.11137 12.897Z" fill="#C3F53E"/>
<path d="M13.7491 13.6817C14.0743 13.6817 14.338 13.418 14.338 13.0928C14.338 12.7676 14.0743 12.5039 13.7491 12.5039C13.4238 12.5039 13.1602 12.7676 13.1602 13.0928C13.1602 13.4181 13.4238 13.6817 13.7491 13.6817ZM13.7491 12.8965C13.8575 12.8965 13.9454 12.9844 13.9454 13.0928C13.9454 13.2012 13.8575 13.2891 13.7491 13.2891C13.6407 13.2891 13.5528 13.2012 13.5528 13.0928C13.5528 12.9844 13.6407 12.8965 13.7491 12.8965Z" fill="#C3F53E"/>
</g>
<defs>
<clipPath id="clip0_234_26754">
<rect width="20" height="20" fill="white" transform="translate(0.792969 -0.00732422)"/>
</clipPath>
</defs>
</svg>
