<svg width="30" height="31" viewBox="0 0 30 31" fill="none" xmlns="http://www.w3.org/2000/svg">
<g clip-path="url(#clip0_234_26825)">
<path d="M28.9294 29.0152H27.858C26.7213 29.0152 25.6312 28.5637 24.8275 27.76C24.0238 26.9562 23.5723 25.8661 23.5723 24.7295C23.5723 25.8661 23.1207 26.9562 22.317 27.76C21.5133 28.5637 20.4232 29.0152 19.2866 29.0152C18.1499 29.0152 17.0598 28.5637 16.2561 27.76C15.4524 26.9562 15.0008 25.8661 15.0008 24.7295C15.0008 25.8661 14.5493 26.9562 13.7456 27.76C12.9419 28.5637 11.8518 29.0152 10.7151 29.0152C9.57848 29.0152 8.48839 28.5637 7.68466 27.76C6.88094 26.9562 6.42941 25.8661 6.42941 24.7295C6.42941 25.8661 5.97788 26.9562 5.17415 27.76C4.37042 28.5637 3.28034 29.0152 2.14369 29.0152H1.07227" stroke="#022B23" stroke-width="1.5" stroke-linecap="round" stroke-linejoin="round"/>
<path d="M21.4292 20.4435C20.3256 19.1017 18.9385 18.021 17.3676 17.2791C15.7966 16.5371 14.0809 16.1523 12.3435 16.1523C10.6062 16.1523 8.89042 16.5371 7.31949 17.2791C5.74855 18.021 4.36144 19.1017 3.25781 20.4435" stroke="#022B23" stroke-width="1.5" stroke-linecap="round" stroke-linejoin="round"/>
<path d="M13.9297 16.2647C14.0583 11.4219 15.5368 7.00759 18.7511 5.42188" stroke="#022B23" stroke-width="1.5" stroke-linecap="round" stroke-linejoin="round"/>
<path d="M12.3438 1.35076C13.7328 1.07724 15.1739 1.34703 16.3699 2.10453C17.566 2.86202 18.4259 4.0495 18.7723 5.42219" stroke="#022B23" stroke-width="1.5" stroke-linecap="round" stroke-linejoin="round"/>
<path d="M26.5948 6.21504C25.6085 5.1501 24.2674 4.48188 22.8233 4.33589C21.3791 4.18989 19.9314 4.57618 18.752 5.42219" stroke="#022B23" stroke-width="1.5" stroke-linecap="round" stroke-linejoin="round"/>
<path d="M10.8867 7.71518C11.7264 6.47812 12.971 5.57241 14.4064 5.15393C15.8417 4.73545 17.3781 4.83035 18.751 5.42232C20.1281 5.75912 21.3205 6.61798 22.0762 7.81751C22.8319 9.01703 23.0918 10.4633 22.801 11.8509" stroke="#022B23" stroke-width="1.5" stroke-linecap="round" stroke-linejoin="round"/>
</g>
<defs>
<clipPath id="clip0_234_26825">
<rect width="30" height="30" fill="white" transform="translate(0 0.129395)"/>
</clipPath>
</defs>
</svg>
