<svg width="30" height="31" viewBox="0 0 30 31" fill="none" xmlns="http://www.w3.org/2000/svg">
<g clip-path="url(#clip0_234_26249)">
<path d="M28.9284 29.5496H27.857C26.7204 29.5496 25.6303 29.0981 24.8265 28.2944C24.0228 27.4906 23.5713 26.4006 23.5713 25.2639C23.5713 26.4006 23.1198 27.4906 22.316 28.2944C21.5123 29.0981 20.4222 29.5496 19.2856 29.5496C18.1489 29.5496 17.0588 29.0981 16.2551 28.2944C15.4514 27.4906 14.9999 26.4006 14.9999 25.2639C14.9999 26.4006 14.5483 27.4906 13.7446 28.2944C12.9409 29.0981 11.8508 29.5496 10.7141 29.5496C9.5775 29.5496 8.48742 29.0981 7.68369 28.2944C6.87996 27.4906 6.42843 26.4006 6.42843 25.2639C6.42843 26.4006 5.9769 27.4906 5.17318 28.2944C4.36945 29.0981 3.27936 29.5496 2.14272 29.5496H1.07129" stroke="#022B23" stroke-width="1.5" stroke-linecap="round" stroke-linejoin="round"/>
<path d="M21.4283 20.9784C20.3246 19.6366 18.9375 18.5559 17.3666 17.814C15.7957 17.072 14.0799 16.6873 12.3426 16.6873C10.6052 16.6873 8.88945 17.072 7.31851 17.814C5.74757 18.5559 4.36046 19.6366 3.25684 20.9784" stroke="#022B23" stroke-width="1.5" stroke-linecap="round" stroke-linejoin="round"/>
<path d="M13.9287 16.7996C14.0573 11.9568 15.5359 7.5425 18.7501 5.95679" stroke="#022B23" stroke-width="1.5" stroke-linecap="round" stroke-linejoin="round"/>
<path d="M12.3428 1.88543C13.7318 1.61191 15.1729 1.8817 16.369 2.6392C17.565 3.39669 18.4249 4.58416 18.7713 5.95686" stroke="#022B23" stroke-width="1.5" stroke-linecap="round" stroke-linejoin="round"/>
<path d="M26.5929 6.74971C25.6066 5.68477 24.2655 5.01654 22.8213 4.87055C21.3772 4.72456 19.9294 5.11085 18.75 5.95686" stroke="#022B23" stroke-width="1.5" stroke-linecap="round" stroke-linejoin="round"/>
<path d="M10.8857 8.2496C11.7254 7.01254 12.97 6.10684 14.4054 5.68835C15.8407 5.26987 17.3771 5.36478 18.75 5.95675C20.1272 6.29355 21.3195 7.1524 22.0752 8.35193C22.8309 9.55145 23.0908 10.9977 22.8 12.3853" stroke="#022B23" stroke-width="1.5" stroke-linecap="round" stroke-linejoin="round"/>
</g>
<defs>
<clipPath id="clip0_234_26249">
<rect width="30" height="30" fill="white" transform="translate(0 0.664062)"/>
</clipPath>
</defs>
</svg>
