<svg width="30" height="30" viewBox="0 0 30 30" fill="none" xmlns="http://www.w3.org/2000/svg">
<g clip-path="url(#clip0_309_13937)">
<path d="M28.9294 28.88H27.858C26.7213 28.88 25.6312 28.4284 24.8275 27.6247C24.0238 26.821 23.5723 25.7309 23.5723 24.5942C23.5723 25.7309 23.1207 26.821 22.317 27.6247C21.5133 28.4284 20.4232 28.88 19.2866 28.88C18.1499 28.88 17.0598 28.4284 16.2561 27.6247C15.4524 26.821 15.0008 25.7309 15.0008 24.5942C15.0008 25.7309 14.5493 26.821 13.7456 27.6247C12.9419 28.4284 11.8518 28.88 10.7151 28.88C9.57848 28.88 8.48839 28.4284 7.68466 27.6247C6.88094 26.821 6.42941 25.7309 6.42941 24.5942C6.42941 25.7309 5.97788 26.821 5.17415 27.6247C4.37042 28.4284 3.28034 28.88 2.14369 28.88H1.07227" stroke="#022B23" stroke-width="1.5" stroke-linecap="round" stroke-linejoin="round"/>
<path d="M21.4292 20.3082C20.3256 18.9664 18.9385 17.8858 17.3676 17.1438C15.7966 16.4019 14.0809 16.0171 12.3435 16.0171C10.6062 16.0171 8.89042 16.4019 7.31949 17.1438C5.74855 17.8858 4.36144 18.9664 3.25781 20.3082" stroke="#022B23" stroke-width="1.5" stroke-linecap="round" stroke-linejoin="round"/>
<path d="M13.9297 16.1295C14.0583 11.2866 15.5368 6.87234 18.7511 5.28662" stroke="#022B23" stroke-width="1.5" stroke-linecap="round" stroke-linejoin="round"/>
<path d="M12.3438 1.21551C13.7328 0.941987 15.1739 1.21178 16.3699 1.96927C17.566 2.72677 18.4259 3.91424 18.7723 5.28693" stroke="#022B23" stroke-width="1.5" stroke-linecap="round" stroke-linejoin="round"/>
<path d="M26.5948 6.07979C25.6085 5.01484 24.2674 4.34662 22.8233 4.20063C21.3791 4.05464 19.9314 4.44093 18.752 5.28693" stroke="#022B23" stroke-width="1.5" stroke-linecap="round" stroke-linejoin="round"/>
<path d="M10.8867 7.57993C11.7264 6.34286 12.971 5.43716 14.4064 5.01868C15.8417 4.60019 17.3781 4.6951 18.751 5.28707C20.1281 5.62387 21.3205 6.48273 22.0762 7.68225C22.8319 8.88178 23.0918 10.3281 22.801 11.7156" stroke="#022B23" stroke-width="1.5" stroke-linecap="round" stroke-linejoin="round"/>
</g>
<defs>
<clipPath id="clip0_309_13937">
<rect width="30" height="30" fill="white" transform="translate(0 -0.00585938)"/>
</clipPath>
</defs>
</svg>
