<svg width="21" height="20" viewBox="0 0 21 20" fill="none" xmlns="http://www.w3.org/2000/svg">
<path d="M13.4761 10.0498L9.93451 13.5914L8.10986 11.7667C7.86572 11.5226 7.47021 11.5226 7.22607 11.7667C6.98193 12.0109 6.98193 12.4064 7.22607 12.6505L9.49261 14.9171C9.61469 15.0391 9.7746 15.1002 9.93451 15.1002C10.0944 15.1002 10.2543 15.0391 10.3764 14.9171L14.3599 10.9336C14.604 10.6895 14.604 10.2939 14.3599 10.0498C14.1157 9.80566 13.7202 9.80566 13.4761 10.0498Z" fill="#C3F53E"/>
<path d="M16.418 2.46765H15.4805V1.86768C15.4805 1.52252 15.2006 1.24268 14.8555 1.24268C14.5103 1.24268 14.2305 1.52252 14.2305 1.86768V2.46765H7.35547V1.86768C7.35547 1.52252 7.07562 1.24268 6.73047 1.24268C6.38531 1.24268 6.10547 1.52252 6.10547 1.86768V2.46765H5.16797C3.44495 2.46765 2.04297 3.86963 2.04297 5.59265V15.6177C2.04297 17.3407 3.44495 18.7427 5.16797 18.7427H16.418C18.141 18.7427 19.543 17.3407 19.543 15.6177V5.59265C19.543 3.86963 18.141 2.46765 16.418 2.46765ZM3.29297 5.59265C3.29297 4.55872 4.13403 3.71765 5.16797 3.71765H6.10547V4.31732C6.10547 4.66248 6.38531 4.94232 6.73047 4.94232C7.07562 4.94232 7.35547 4.66248 7.35547 4.31732V3.71765H14.2305V4.31732C14.2305 4.66248 14.5103 4.94232 14.8555 4.94232C15.2006 4.94232 15.4805 4.66248 15.4805 4.31732V3.71765H16.418C17.4519 3.71765 18.293 4.55872 18.293 5.59265V6.22375H3.29297V5.59265ZM16.418 17.4927H5.16797C4.13403 17.4927 3.29297 16.6516 3.29297 15.6177V7.47375H18.293V15.6177C18.293 16.6516 17.4519 17.4927 16.418 17.4927Z" fill="#C3F53E"/>
</svg>
