<svg width="30" height="30" viewBox="0 0 30 30" fill="none" xmlns="http://www.w3.org/2000/svg">
<g clip-path="url(#clip0_395_652)">
<path d="M14.9414 0.9375C6.70254 0.9375 0 6.85125 0 14.1211C0 17.1921 1.21535 20.1679 3.42721 22.5265C3.86496 24.3315 3.33363 26.2438 2.01527 27.5621C1.46402 28.1135 1.85385 29.0625 2.63672 29.0625C5.14125 29.0625 7.55566 28.0815 9.34951 26.3511C11.1245 26.9845 13.0025 27.3047 14.9414 27.3047C23.1803 27.3047 30 21.3909 30 14.1211C30 6.85125 23.1803 0.9375 14.9414 0.9375ZM8.02734 16.7578C6.5734 16.7578 5.39062 15.575 5.39062 14.1211C5.39062 12.6671 6.5734 11.4844 8.02734 11.4844C9.48129 11.4844 10.6641 12.6671 10.6641 14.1211C10.6641 15.575 9.48129 16.7578 8.02734 16.7578ZM15.0586 16.7578C13.6046 16.7578 12.4219 15.575 12.4219 14.1211C12.4219 12.6671 13.6046 11.4844 15.0586 11.4844C16.5125 11.4844 17.6953 12.6671 17.6953 14.1211C17.6953 15.575 16.5125 16.7578 15.0586 16.7578ZM22.0898 16.7578C20.6359 16.7578 19.4531 15.575 19.4531 14.1211C19.4531 12.6671 20.6359 11.4844 22.0898 11.4844C23.5438 11.4844 24.7266 12.6671 24.7266 14.1211C24.7266 15.575 23.5438 16.7578 22.0898 16.7578Z" fill="#022B23"/>
</g>
<defs>
<clipPath id="clip0_395_652">
<rect width="30" height="30" fill="white"/>
</clipPath>
</defs>
</svg>
