<svg width="30" height="31" viewBox="0 0 30 31" fill="none" xmlns="http://www.w3.org/2000/svg">
<g clip-path="url(#clip0_234_26410)">
<path d="M14.9997 20.852C17.9584 20.852 20.3569 18.4535 20.3569 15.4948C20.3569 12.5362 17.9584 10.1377 14.9997 10.1377C12.0411 10.1377 9.64258 12.5362 9.64258 15.4948C9.64258 18.4535 12.0411 20.852 14.9997 20.852Z" stroke="#022B23" stroke-width="1.5" stroke-linecap="round" stroke-linejoin="round"/>
<path d="M15 1.56641V5.85212" stroke="#022B23" stroke-width="1.5" stroke-linecap="round" stroke-linejoin="round"/>
<path d="M5.14258 5.6377L8.18543 8.68055" stroke="#022B23" stroke-width="1.5" stroke-linecap="round" stroke-linejoin="round"/>
<path d="M1.07129 15.4951H5.357" stroke="#022B23" stroke-width="1.5" stroke-linecap="round" stroke-linejoin="round"/>
<path d="M5.14258 25.3519L8.18543 22.3091" stroke="#022B23" stroke-width="1.5" stroke-linecap="round" stroke-linejoin="round"/>
<path d="M15 29.4234V25.1377" stroke="#022B23" stroke-width="1.5" stroke-linecap="round" stroke-linejoin="round"/>
<path d="M24.8573 25.3519L21.8145 22.3091" stroke="#022B23" stroke-width="1.5" stroke-linecap="round" stroke-linejoin="round"/>
<path d="M28.9283 15.4951H24.6426" stroke="#022B23" stroke-width="1.5" stroke-linecap="round" stroke-linejoin="round"/>
<path d="M24.8573 5.6377L21.8145 8.68055" stroke="#022B23" stroke-width="1.5" stroke-linecap="round" stroke-linejoin="round"/>
</g>
<defs>
<clipPath id="clip0_234_26410">
<rect width="30" height="30" fill="white" transform="translate(0 0.495117)"/>
</clipPath>
</defs>
</svg>
