<svg width="41" height="41" viewBox="0 0 41 41" fill="none" xmlns="http://www.w3.org/2000/svg">
<path d="M20.1286 27.633C27.2294 27.633 32.9858 21.8766 32.9858 14.7758C32.9858 7.67504 27.2294 1.9187 20.1286 1.9187C13.0278 1.9187 7.27148 7.67504 7.27148 14.7758C7.27148 21.8766 13.0278 27.633 20.1286 27.633Z" stroke="white" stroke-width="1.5" stroke-linecap="round" stroke-linejoin="round"/>
<path d="M20.1283 20.4901C23.2843 20.4901 25.8426 17.9317 25.8426 14.7758C25.8426 11.6199 23.2843 9.06152 20.1283 9.06152C16.9724 9.06152 14.4141 11.6199 14.4141 14.7758C14.4141 17.9317 16.9724 20.4901 20.1283 20.4901Z" stroke="white" stroke-width="1.5" stroke-linecap="round" stroke-linejoin="round"/>
<path d="M17.6427 27.4043L15.1284 37.9757C15.0787 38.1766 14.9867 38.3646 14.8586 38.5272C14.7305 38.6898 14.5692 38.8232 14.3856 38.9186C14.1917 39.0027 13.9826 39.0462 13.7713 39.0462C13.5599 39.0462 13.3508 39.0027 13.157 38.9186L3.67127 34.7757C3.4723 34.6817 3.29722 34.5438 3.15918 34.3724C3.02114 34.2009 2.92372 34.0005 2.87423 33.786C2.82474 33.5716 2.82447 33.3487 2.87344 33.1342C2.92242 32.9196 3.01935 32.7189 3.15698 32.5472L10.4998 23.3472" stroke="white" stroke-width="1.5" stroke-linecap="round" stroke-linejoin="round"/>
<path d="M23.3574 27.2616L25.9288 37.9759C25.98 38.1802 26.0757 38.3707 26.209 38.5337C26.3424 38.6967 26.5101 38.8282 26.7003 38.9187C26.8888 39.0039 27.0934 39.048 27.3003 39.048C27.5072 39.048 27.7117 39.0039 27.9003 38.9187L37.3289 34.7759C37.5308 34.6829 37.7083 34.5441 37.8472 34.3705C37.9861 34.1969 38.0825 33.9933 38.1289 33.7759C38.183 33.5632 38.1853 33.3406 38.1356 33.1268C38.0859 32.913 37.9856 32.7143 37.8431 32.5473L30.186 22.8044" stroke="white" stroke-width="1.5" stroke-linecap="round" stroke-linejoin="round"/>
</svg>
