<svg width="26" height="26" viewBox="0 0 26 26" fill="none" xmlns="http://www.w3.org/2000/svg">
<path d="M16.3391 5.72312L17.118 6.08835L14.8008 8.40554L17.5629 11.1676L19.8797 8.85085L20.2449 9.62976C20.6074 10.4028 21.7473 10.2755 21.9219 9.43991C22.3445 7.41804 22.7477 5.54773 23.5059 3.61726C23.7922 2.88874 23.0789 2.17585 22.3504 2.46218C20.4203 3.22077 18.55 3.6239 16.5285 4.04655C15.6934 4.22077 15.566 5.36062 16.3391 5.72312Z" fill="white"/>
<path d="M9.66125 20.2122L8.88234 19.8469L11.1995 17.5298L8.43742 14.7676L6.12062 17.0844L5.75539 16.3055C5.39289 15.5325 4.25304 15.6598 4.07843 16.4954C3.65578 18.5173 3.25265 20.3876 2.49445 22.318C2.20812 23.0466 2.9214 23.7594 3.64992 23.4731C5.58 22.7145 7.45031 22.3114 9.47179 21.8887C10.3069 21.7145 10.4343 20.5747 9.66125 20.2122Z" fill="white"/>
<path d="M20.2453 16.3059L19.8801 17.0848L17.5629 14.7677L14.8008 17.5298L17.1176 19.8466L16.3387 20.2118C15.5656 20.5743 15.693 21.7141 16.5285 21.8887C18.5504 22.3114 20.4207 22.7145 22.3512 23.4727C23.0797 23.7591 23.7926 23.0458 23.5062 22.3173C22.7477 20.3872 22.3445 18.5169 21.9219 16.4954C21.7477 15.6602 20.6078 15.5329 20.2453 16.3059Z" fill="white"/>
<path d="M5.75541 9.62937L6.12065 8.85046L8.43783 11.1677L11.1999 8.40554L8.88315 6.08875L9.66205 5.72351C10.4351 5.36101 10.3078 4.22117 9.47221 4.04656C7.45033 3.6239 5.58002 3.22078 3.64955 2.46257C2.92104 2.17625 2.20815 2.88953 2.49447 3.61804C3.25307 5.54812 3.65619 7.41843 4.07885 9.43992C4.25307 10.2751 5.39291 10.4024 5.75541 9.62937Z" fill="white"/>
<path d="M14.9167 14.8865C15.9764 13.8267 15.9764 12.1086 14.9167 11.0488C13.8569 9.98906 12.1387 9.98906 11.079 11.0488C10.0193 12.1086 10.0193 13.8267 11.079 14.8865C12.1387 15.9462 13.8569 15.9462 14.9167 14.8865Z" fill="white"/>
</svg>
