<svg width="30" height="31" viewBox="0 0 30 31" fill="none" xmlns="http://www.w3.org/2000/svg">
<g clip-path="url(#clip0_234_26214)">
<path d="M14.9997 21.0214C17.9584 21.0214 20.3569 18.6229 20.3569 15.6643C20.3569 12.7056 17.9584 10.3071 14.9997 10.3071C12.0411 10.3071 9.64258 12.7056 9.64258 15.6643C9.64258 18.6229 12.0411 21.0214 14.9997 21.0214Z" stroke="#022B23" stroke-width="1.5" stroke-linecap="round" stroke-linejoin="round"/>
<path d="M15 1.7356V6.02131" stroke="#022B23" stroke-width="1.5" stroke-linecap="round" stroke-linejoin="round"/>
<path d="M5.14258 5.80713L8.18543 8.84999" stroke="#022B23" stroke-width="1.5" stroke-linecap="round" stroke-linejoin="round"/>
<path d="M1.07129 15.6641H5.357" stroke="#022B23" stroke-width="1.5" stroke-linecap="round" stroke-linejoin="round"/>
<path d="M5.14258 25.5214L8.18543 22.4785" stroke="#022B23" stroke-width="1.5" stroke-linecap="round" stroke-linejoin="round"/>
<path d="M15 29.5928V25.3071" stroke="#022B23" stroke-width="1.5" stroke-linecap="round" stroke-linejoin="round"/>
<path d="M24.8573 25.5214L21.8145 22.4785" stroke="#022B23" stroke-width="1.5" stroke-linecap="round" stroke-linejoin="round"/>
<path d="M28.9283 15.6641H24.6426" stroke="#022B23" stroke-width="1.5" stroke-linecap="round" stroke-linejoin="round"/>
<path d="M24.8573 5.80713L21.8145 8.84999" stroke="#022B23" stroke-width="1.5" stroke-linecap="round" stroke-linejoin="round"/>
</g>
<defs>
<clipPath id="clip0_234_26214">
<rect width="30" height="30" fill="white" transform="translate(0 0.664062)"/>
</clipPath>
</defs>
</svg>
