<svg width="50" height="51" viewBox="0 0 50 51" fill="none" xmlns="http://www.w3.org/2000/svg">
<path d="M49.9704 26.5274C50.0021 25.8728 50.0092 25.2115 49.9895 24.5454C49.9608 23.5879 49.8769 22.6453 49.7443 21.7191C32.1526 23.4771 15.2315 32.8528 6.83984 42.498C7.48211 43.174 8.16153 43.8139 8.87512 44.4145C18.3728 34.2123 35.612 27.4438 49.9704 26.5274Z" fill="white"/>
<path d="M18.8123 29.2843C13.7512 25.6421 7.4426 22.3819 0.525963 20.0231C0.246187 21.3245 0.0675282 22.662 0 24.0273C5.77487 25.7509 11.3615 28.1815 16.1672 31.2275C17.0242 30.561 17.9074 29.9133 18.8123 29.2843Z" fill="white"/>
<path d="M2.29492 35.8282C3.2991 37.9853 4.60019 39.9726 6.14586 41.7387C7.09816 40.289 8.1877 38.8779 9.39619 37.5131C7.11749 36.85 4.73974 36.2845 2.29492 35.8282Z" fill="white"/>
<path d="M14.2749 32.7636C10.0233 30.6582 5.19952 28.8701 0.0732422 27.5701C0.217847 29.1636 0.509819 30.7128 0.937765 32.2035C4.54736 32.9877 8.09196 34.0434 11.4344 35.361C12.3347 34.4713 13.2834 33.6046 14.2749 32.7636Z" fill="white"/>
<path d="M49.3864 30.822C34.0133 31.5892 18.9698 37.8219 9.92285 45.2491C10.7691 45.888 11.6563 46.4745 12.5807 47.0033C22.1443 40.4151 35.6116 36.5806 47.4983 36.1964C48.3223 34.5014 48.9616 32.7008 49.3864 30.822Z" fill="white"/>
<path d="M14.6162 48.0454C17.9942 49.5859 21.7681 50.3966 25.7303 50.2786C33.6034 50.0442 40.5168 46.1976 44.9306 40.3774C33.7809 40.7468 22.9011 43.7759 14.6162 48.0454Z" fill="white"/>
<path d="M28.4202 9.90705L43.9139 8.94904C39.1617 3.45669 32.0679 0.0679706 24.2395 0.301235C19.2103 0.45092 14.5747 2.07711 10.7301 4.74729L26.3017 5.71012L8.11098 6.83483C6.1438 8.633 4.46974 10.7411 3.15818 13.0766L21.6516 14.2201L1.99352 15.4358C1.81901 15.8417 1.65139 16.2509 1.49805 16.6674C8.5793 19.4866 15.3032 23.4204 20.4985 28.1507C29.1738 22.5145 39.5814 18.6192 48.7542 17.4825C47.9824 15.1326 46.8693 12.9422 45.4804 10.9621L28.4202 9.90705Z" fill="#C3F53E"/>
</svg>
