<svg width="168" height="51" viewBox="0 0 168 51" fill="none" xmlns="http://www.w3.org/2000/svg">
<path d="M49.9704 26.5274C50.0021 25.8728 50.0092 25.2115 49.9895 24.5454C49.9608 23.5879 49.8769 22.6453 49.7443 21.7191C32.1526 23.4771 15.2315 32.8528 6.83984 42.498C7.48211 43.174 8.16153 43.8139 8.87512 44.4145C18.3728 34.2123 35.612 27.4438 49.9704 26.5274Z" fill="white"/>
<path d="M18.8123 29.2843C13.7512 25.6421 7.4426 22.3819 0.525963 20.0231C0.246187 21.3245 0.0675282 22.662 0 24.0273C5.77487 25.7509 11.3615 28.1815 16.1672 31.2275C17.0242 30.561 17.9074 29.9133 18.8123 29.2843Z" fill="white"/>
<path d="M2.29492 35.8282C3.2991 37.9853 4.60019 39.9726 6.14586 41.7387C7.09816 40.289 8.1877 38.8779 9.39619 37.5131C7.11749 36.85 4.73974 36.2845 2.29492 35.8282Z" fill="white"/>
<path d="M14.2749 32.7636C10.0233 30.6582 5.19952 28.8701 0.0732422 27.5701C0.217847 29.1636 0.509819 30.7128 0.937765 32.2035C4.54736 32.9877 8.09196 34.0434 11.4344 35.361C12.3347 34.4713 13.2834 33.6046 14.2749 32.7636Z" fill="white"/>
<path d="M49.3864 30.822C34.0133 31.5892 18.9698 37.8219 9.92285 45.2491C10.7691 45.888 11.6563 46.4745 12.5807 47.0033C22.1443 40.4151 35.6116 36.5806 47.4983 36.1964C48.3223 34.5014 48.9616 32.7008 49.3864 30.822Z" fill="white"/>
<path d="M14.6162 48.0454C17.9942 49.5859 21.7681 50.3966 25.7303 50.2786C33.6034 50.0442 40.5168 46.1976 44.9306 40.3774C33.7809 40.7468 22.9011 43.7759 14.6162 48.0454Z" fill="white"/>
<path d="M28.4202 9.90705L43.9139 8.94904C39.1617 3.45669 32.0679 0.0679706 24.2395 0.301235C19.2103 0.45092 14.5747 2.07711 10.7301 4.74729L26.3017 5.71012L8.11098 6.83483C6.1438 8.633 4.46974 10.7411 3.15818 13.0766L21.6516 14.2201L1.99352 15.4358C1.81901 15.8417 1.65139 16.2509 1.49805 16.6674C8.5793 19.4866 15.3032 23.4204 20.4985 28.1507C29.1738 22.5145 39.5814 18.6192 48.7542 17.4825C47.9824 15.1326 46.8693 12.9422 45.4804 10.9621L28.4202 9.90705Z" fill="#C3F53E"/>
<path d="M66.2908 34.2899L71.4148 16.3979H77.9948L83.0908 34.2899H78.6668L74.8728 19.2819H74.5508L70.7148 34.2899H66.2908ZM70.6448 30.0759V26.6739H78.7088V30.0759H70.6448ZM90.1465 34.6819C88.7839 34.6819 87.6405 34.3879 86.7165 33.7999C85.8019 33.2119 85.1159 32.3626 84.6585 31.2519C84.2012 30.1319 83.9725 28.7879 83.9725 27.2199V24.0699C83.9725 21.4379 84.6819 19.4359 86.1005 18.0639C87.5285 16.6919 89.6099 16.0059 92.3445 16.0059C93.1845 16.0059 93.9639 16.0666 94.6825 16.1879C95.4012 16.2999 96.0545 16.4492 96.6425 16.6359C97.2399 16.8226 97.7579 17.0279 98.1965 17.2519L98.5745 20.9479C97.8652 20.6306 97.0719 20.3506 96.1945 20.1079C95.3265 19.8559 94.3279 19.7299 93.1985 19.7299C91.5559 19.7299 90.3519 20.1032 89.5865 20.8499C88.8212 21.5872 88.4385 22.7446 88.4385 24.3219V27.2619C88.4385 28.4379 88.7139 29.3479 89.2645 29.9919C89.8245 30.6359 90.6925 30.9579 91.8685 30.9579C92.3912 30.9579 92.8439 30.8833 93.2265 30.7339C93.6185 30.5753 93.9405 30.3699 94.1925 30.1179C94.4539 29.8659 94.6592 29.5859 94.8085 29.2779V25.8619L95.3825 27.1499L91.9385 27.1639V23.7899H99.0085V31.3079H94.7245C94.5845 31.9519 94.3465 32.5306 94.0105 33.0439C93.6839 33.5479 93.2079 33.9493 92.5825 34.2479C91.9665 34.5373 91.1545 34.6819 90.1465 34.6819ZM94.9065 30.6079H99.0085V34.2899H94.7665L94.9065 30.6079ZM112.153 34.2899L111.803 30.9159C111.747 30.3186 111.63 29.8333 111.453 29.4599C111.275 29.0773 111.005 28.7973 110.641 28.6199C110.277 28.4333 109.791 28.3399 109.185 28.3399L105.139 28.3259V24.9799L109.353 24.9659C110.267 24.9659 110.925 24.7653 111.327 24.3639C111.728 23.9626 111.929 23.3606 111.929 22.5579V22.2779C111.929 21.4846 111.728 20.8919 111.327 20.4999C110.935 20.0986 110.272 19.8979 109.339 19.8979H105.111V16.3979H109.969C112.162 16.3979 113.763 16.8226 114.771 17.6719C115.788 18.5212 116.297 19.7439 116.297 21.3399V21.7039C116.297 22.9079 115.989 23.8459 115.373 24.5179C114.757 25.1899 113.819 25.5726 112.559 25.6659V26.2819L111.663 25.6799C112.745 25.7546 113.585 25.9786 114.183 26.3519C114.78 26.7253 115.219 27.2479 115.499 27.9199C115.788 28.5826 115.998 29.4086 116.129 30.3979L116.647 34.2899H112.153ZM102.101 34.2899V16.3979H106.357V26.1839L106.385 27.8079V34.2899H102.101ZM123.45 34.2899H119.054V16.3979H123.45V34.2899ZM132.338 34.6819C130.975 34.6819 129.832 34.3879 128.908 33.7999C127.993 33.2119 127.307 32.3626 126.85 31.2519C126.393 30.1319 126.164 28.7879 126.164 27.2199V24.0699C126.164 21.4379 126.873 19.4359 128.292 18.0639C129.72 16.6919 131.801 16.0059 134.536 16.0059C135.376 16.0059 136.155 16.0666 136.874 16.1879C137.593 16.2999 138.246 16.4492 138.834 16.6359C139.431 16.8226 139.949 17.0279 140.388 17.2519L140.766 20.9479C140.057 20.6306 139.263 20.3506 138.386 20.1079C137.518 19.8559 136.519 19.7299 135.39 19.7299C133.747 19.7299 132.543 20.1032 131.778 20.8499C131.013 21.5872 130.63 22.7446 130.63 24.3219V27.2619C130.63 28.4379 130.905 29.3479 131.456 29.9919C132.016 30.6359 132.884 30.9579 134.06 30.9579C134.583 30.9579 135.035 30.8833 135.418 30.7339C135.81 30.5753 136.132 30.3699 136.384 30.1179C136.645 29.8659 136.851 29.5859 137 29.2779V25.8619L137.574 27.1499L134.13 27.1639V23.7899H141.2V31.3079H136.916C136.776 31.9519 136.538 32.5306 136.202 33.0439C135.875 33.5479 135.399 33.9493 134.774 34.2479C134.158 34.5373 133.346 34.6819 132.338 34.6819ZM137.098 30.6079H141.2V34.2899H136.958L137.098 30.6079ZM151.476 34.7239C148.872 34.7239 146.917 34.0706 145.61 32.7639C144.313 31.4573 143.664 29.5766 143.664 27.1219V23.7199C143.664 21.2559 144.317 19.3566 145.624 18.0219C146.94 16.6779 148.891 16.0059 151.476 16.0059C154.061 16.0059 156.007 16.6779 157.314 18.0219C158.63 19.3566 159.288 21.2559 159.288 23.7199V27.1219C159.288 29.5766 158.635 31.4573 157.328 32.7639C156.021 34.0706 154.071 34.7239 151.476 34.7239ZM151.476 31.1119C152.605 31.1119 153.445 30.7806 153.996 30.1179C154.547 29.4553 154.822 28.5266 154.822 27.3319V23.4959C154.822 22.2452 154.547 21.2839 153.996 20.6119C153.445 19.9399 152.605 19.6039 151.476 19.6039C150.347 19.6039 149.507 19.9399 148.956 20.6119C148.405 21.2839 148.13 22.2452 148.13 23.4959V27.3319C148.13 28.5266 148.405 29.4553 148.956 30.1179C149.507 30.7806 150.347 31.1119 151.476 31.1119Z" fill="white"/>
<path d="M163.145 34.6679C162.342 34.6679 161.749 34.4626 161.367 34.0519C160.993 33.6413 160.807 33.0673 160.807 32.3299V32.1759C160.807 31.4479 160.993 30.8739 161.367 30.4539C161.749 30.0339 162.342 29.8239 163.145 29.8239C163.929 29.8239 164.512 30.0339 164.895 30.4539C165.277 30.8739 165.469 31.4479 165.469 32.1759V32.3299C165.469 33.0673 165.277 33.6413 164.895 34.0519C164.512 34.4626 163.929 34.6679 163.145 34.6679Z" fill="#C3F53E"/>
</svg>
